<svg id="图层_1" data-name="图层 1" xmlns="http://www.w3.org/2000/svg" viewBox="0 0 400 200"><title>bili_logo</title><path d="M218.94,54.32c0,7.42,0,14.87,0,22.29q0,6.9.22,13.82c.1,3.11.3,6.22.47,9.31.1,1.62.2,3.21.4,4.83s.47,3,.72,4.56c.13.82.28,1.67.45,2.49a4.06,4.06,0,0,0,.45,1.17c.1.15.45.2.67.25s.33-.1.48-.1c2.26-.07,4.55-.22,6.82-.2,1.77,0,3.54.2,5.28.4s3.53.45,5.3.77c1.57.28,3.14.67,4.71,1,1.22.28,2.47.53,3.69.87,1.46.43,2.88,1,4.33,1.45.85.3,1.72.6,2.54,1,1,.44,2.07.92,3.09,1.42a14.59,14.59,0,0,1,1.86,1,11.84,11.84,0,0,1,5,4.65,6.65,6.65,0,0,1,.55,3.86,12.67,12.67,0,0,1-3.74,7.18,21.81,21.81,0,0,1-5,3.88c-1.42.8-2.81,1.62-4.26,2.29s-3.06,1.22-4.6,1.79c-1,.35-1.92.7-2.89,1q-1.83.51-3.66,1c-.95.25-1.92.52-2.87.75-.74.17-1.52.32-2.29.47-1.34.25-2.66.53-4,.75s-2.91.37-4.36.55c-1.69.2-3.38.42-5.08.59-.74.08-1.49.13-2.21.2-1.9.13-3.79.28-5.68.4-.4,0-.77,0-1.17,0a.43.43,0,0,1-.52-.45,3.15,3.15,0,0,1-.05-.52c-.08-1.4-.18-2.79-.25-4.19-.08-1.19-.1-2.39-.2-3.61-.23-3.09-.48-6.15-.72-9.24-.15-1.89-.28-3.76-.43-5.65-.1-1.32-.22-2.67-.35-4-.17-1.94-.34-3.88-.54-5.82-.05-.58-.15-1.12-.23-1.7s-.1-1.22-.17-1.84-.2-1.34-.3-2c0,0,0-.1,0-.15-.15-1.39-.27-2.79-.44-4.15-.2-1.52-.43-3-.63-4.54s-.4-3.14-.64-4.68-.48-2.81-.73-4.21c-.17-1-.3-2-.45-3l-.74-4.48c-.18-1.07-.35-2.14-.53-3.21-.22-1.25-.47-2.52-.72-3.76-.15-.8-.3-1.6-.42-2.39-.25-1.32-.5-2.64-.72-4-.2-1-.35-2.09-.58-3.11S203.2,67.07,203,66c-.17-.82-.3-1.62-.45-2.44l-.67-3.29c-.2-1-.4-2.07-.62-3.11-.08-.43.12-.63.5-.77q3.24-1.25,6.52-2.45c2.34-.87,4.68-1.69,7.05-2.56,1.1-.4,2.19-.82,3.29-1.25.44-.17.57-.1.54.43,0,1,0,2,0,3.09v.72Zm11.75,69.13c-.92,0-1,.07-1,.72,0,.08,0,.18,0,.25.22,1.65.45,3.26.67,4.91l.3,2c.22,1.52.45,3.07.65,4.59.17,1.27.32,2.54.5,3.81.07.47.42.59.79.32.87-.62,1.72-1.27,2.59-1.89,1.42-1,2.82-2.07,4.24-3.09l4.33-3.19c.8-.6,1.62-1.19,2.41-1.82.28-.19.28-.39,0-.52-1.17-.52-2.31-1.07-3.48-1.59s-2.34-1-3.49-1.45c-.77-.32-1.54-.67-2.34-1-1.39-.52-2.79-1-4.21-1.49A18.5,18.5,0,0,0,230.69,123.45Z"/><path d="M104.28,67.34c0,2.92,0,5.83,0,8.74.12,6,.25,11.93.45,17.88.07,2.59.27,5.21.45,7.8.1,1.37.25,2.71.39,4.06a28.1,28.1,0,0,0,.4,2.84c.25,1.24.55,2.46.87,3.68.18.65.4.75,1.08.6l.14,0c2.5-.08,5-.18,7.45-.2a28.48,28.48,0,0,1,3.59.22c1.54.18,3.06.45,4.6.7,1.75.27,3.47.57,5.18.89,1,.2,2,.48,3,.73s2.19.57,3.28.89,2,.6,2.92.92,2,.73,3,1.15,1.74.82,2.59,1.22a25.17,25.17,0,0,1,4.53,2.81,9,9,0,0,1,2.44,2.74,6.79,6.79,0,0,1,.67,4,11.33,11.33,0,0,1-1.72,4.71,18.25,18.25,0,0,1-3.51,3.93,31.11,31.11,0,0,1-6.92,4.38c-1.74.82-3.59,1.5-5.4,2.19-1.05.4-2.1.75-3.17,1.08s-2.19.59-3.28.87-2.15.57-3.22.79c-.87.2-1.74.3-2.64.48s-2,.42-3.06.57c-1.49.22-3,.45-4.48.62q-2.7.34-5.43.65c-.9.1-1.77.15-2.67.2-2,.12-4.06.27-6.07.4-.75,0-.75,0-.8-.75-.12-2.12-.27-4.21-.4-6.32-.12-1.82-.25-3.64-.37-5.43-.18-2.25-.35-4.51-.52-6.75-.13-1.47-.2-3-.33-4.44-.2-2.29-.42-4.55-.65-6.84-.1-1.1-.2-2.17-.32-3.27-.17-1.47-.37-2.91-.55-4.38s-.27-2.91-.45-4.36-.37-2.71-.54-4.06c-.23-1.67-.45-3.31-.7-5-.23-1.42-.5-2.84-.72-4.26-.18-1.09-.3-2.19-.45-3.26s-.4-2.34-.6-3.51c-.27-1.69-.57-3.36-.85-5.06-.2-1.27-.39-2.51-.62-3.78-.35-1.79-.72-3.59-1.07-5.4-.2-1.1-.37-2.2-.57-3.27s-.45-2.14-.67-3.23c-.18-.85-.33-1.72-.5-2.57l-.68-3.34c-.24-1.22-.52-2.44-.74-3.68-.1-.48.25-.62.6-.75l4-1.49c1.25-.48,2.5-.92,3.74-1.37,1-.35,1.92-.73,2.86-1.1l3.79-1.39c.52-.2,1-.4,1.54-.58A4.37,4.37,0,0,1,104,50c.47-.1.6,0,.57.5,0,1.4-.07,2.79-.12,4.21,0,1.07,0,2.12,0,3.19v9.34C104.33,67.34,104.3,67.34,104.28,67.34Zm11.65,56.11c-.84,0-1,.12-.89.75s.17,1,.25,1.59.15,1.22.25,1.82c.17,1.09.34,2.17.52,3.26.2,1.37.37,2.77.55,4.16.22,1.57.47,3.14.69,4.73a.48.48,0,0,0,.8.35c.13-.07.23-.2.35-.27l5.28-3.89c1.34-1,2.69-2,4.06-3,1.22-.9,2.44-1.74,3.66-2.67.5-.37.45-.57-.08-.82l-.67-.3c-1.32-.54-2.61-1.09-3.93-1.64-1.5-.65-3-1.32-4.51-1.92s-3-1.09-4.48-1.59A10.67,10.67,0,0,0,115.93,123.45Z"/><path d="M286.75,61.29c.84.1,1.72.18,2.56.27a.79.79,0,0,1,.7.83c.17,2.16.32,4.31.47,6.47l.45,7.17c.13,1.85.25,3.69.4,5.53.2,2.42.4,4.83.57,7.22.08.9.13,1.82.18,2.72.12,1.72.3,3.44.42,5.15.17,2.12.3,4.24.47,6.33.13,1.82.25,3.64.4,5.45s.25,3.71.4,5.58l.6,7.15c.22,2.94.42,5.88.67,8.81.2,2.62.42,5.23.65,7.85.05.55-.05.67-.6.77a21,21,0,0,1-6.72,0,.74.74,0,0,1-.7-.8c-.2-2.57-.42-5.13-.65-7.7-.07-.74-.15-1.49-.2-2.24-.15-1.77-.27-3.53-.45-5.28-.2-1.94-.49-3.86-.69-5.8-.2-1.77-.35-3.56-.55-5.33-.25-2.29-.52-4.58-.8-6.9-.12-1.07-.25-2.11-.4-3.18-.22-1.52-.47-3-.67-4.54-.17-1.22-.3-2.44-.47-3.66-.23-1.64-.5-3.28-.72-4.93-.2-1.39-.35-2.79-.58-4.18s-.47-2.59-.67-3.89c-.17-1-.3-2.11-.47-3.18-.23-1.42-.5-2.82-.72-4.24-.2-1.14-.35-2.31-.55-3.46s-.48-2.34-.7-3.51-.37-2.12-.55-3.16a.42.42,0,0,1,.4-.55,5.28,5.28,0,0,1,.67-.13c2.05-.2,4.11-.37,6.15-.54.58-.05,1.15,0,1.72,0A.3.3,0,0,1,286.75,61.29Z"/><path d="M172.39,61.32c.57,0,1.42.12,2.27.24a.89.89,0,0,1,.74.9c.08.7.15,1.4.18,2.09L176,72.3c.12,1.94.27,3.88.42,5.83.17,2.34.4,4.65.57,7,.28,3.42.53,6.83.77,10.21s.48,6.45.7,9.69c.13,1.87.25,3.76.43,5.63.22,2.61.49,5.2.69,7.82s.35,5,.55,7.6c.17,2.39.4,4.8.57,7.19.1,1.32.15,2.64.23,4a5,5,0,0,0,.15.67c.1.43-.05.63-.5.7a19.45,19.45,0,0,1-5.75.18,7.25,7.25,0,0,1-1.25-.2c-.17,0-.4-.28-.4-.43-.17-1.64-.3-3.31-.47-4.95-.18-1.87-.37-3.71-.57-5.58-.08-.77-.13-1.57-.2-2.34-.15-1.82-.28-3.61-.48-5.43s-.47-3.56-.69-5.36-.33-3.53-.55-5.27-.5-3.64-.72-5.46c-.18-1.39-.3-2.81-.48-4.21s-.47-3.06-.69-4.6c0-.08,0-.13,0-.2-.17-1.42-.32-2.84-.52-4.26-.25-1.84-.52-3.66-.82-5.51-.18-1.19-.4-2.36-.58-3.53-.2-1.37-.37-2.72-.62-4.09-.35-2-.72-4-1.07-6-.2-1.19-.35-2.41-.57-3.61s-.43-2.12-.65-3.19c-.12-.64-.27-1.27-.35-1.91a.6.6,0,0,1,.25-.48,3.55,3.55,0,0,1,1-.2c2-.2,4-.37,6-.54C171,61.37,171.57,61.37,172.39,61.32Z"/><path d="M313.27,125.94c0,4.31,0,8.59,0,12.9,0,1.62-.1,3.21-.12,4.83a.49.49,0,0,1-.5.55c-.25,0-.53,0-.77,0-1.77.08-3.54.15-5.31.25-.67,0-1.32.1-2,.15-.42.05-.6-.12-.65-.57-.12-1.54-.25-3.06-.42-4.61-.23-2-.5-3.93-.7-5.9s-.35-4.21-.55-6.32c-.12-1.57-.27-3.14-.42-4.71-.13-1.37-.25-2.72-.37-4.09-.15-1.59-.3-3.16-.43-4.75-.25-3.21-.5-6.45-.72-9.66-.05-.9,0-.88.92-1,1.94-.15,3.89-.42,5.83-.5,1.54,0,3.09,0,4.63.15.77,0,.92.75,1,1.37.1.82.17,1.64.22,2.49.1,1.72.2,3.44.23,5.16.09,4.73.14,9.43.22,14.17Z"/><path d="M167.06,140.71c0,1.44,0,1.22-1.42,1.47-1.67.3-3.36.52-5,.74-.72.1-1.44.18-2.17.25-.37.05-.49-.2-.54-.49-.23-1.17-.43-2.37-.65-3.54-.18-.87-.37-1.74-.55-2.62-.22-1.07-.42-2.14-.62-3.21s-.42-2.16-.65-3.26-.4-2.24-.62-3.34c-.18-.89-.37-1.77-.55-2.66s-.42-2-.6-3.07c-.32-1.76-.59-3.53-.92-5.27-.22-1.15-.5-2.27-.7-3.42-.17-1-.29-2-.47-3s-.37-2.14-.55-3.21-.35-2-.49-3c-.1-.6,0-.7.59-.82,1.4-.28,2.79-.5,4.16-.82a28.56,28.56,0,0,1,4.86-.6,10.92,10.92,0,0,1,1.62,0,1.26,1.26,0,0,1,1.12,1.17c.3,2,.62,3.89.89,5.83.23,1.52.43,3,.6,4.58.23,2,.38,3.94.6,5.91.25,2.49.55,5,.8,7.47.2,2,.32,4,.47,6s.25,3.71.42,5.58C166.76,138.52,166.94,139.61,167.06,140.71Z"/><path d="M265.18,103.2c0-.82-.05-.84.75-1,1.27-.28,2.56-.48,3.81-.8a41.28,41.28,0,0,1,4.71-.62,4.4,4.4,0,0,1,2.36.25,1.13,1.13,0,0,1,.57.69A50.82,50.82,0,0,1,278.7,110c.15,1.72.4,3.44.58,5.16.22,2.09.39,4.16.59,6.25.25,2.46.55,4.93.78,7.37.2,2.12.3,4.26.47,6.38.12,1.81.27,3.66.42,5.47a1.41,1.41,0,0,0,.13.43.71.71,0,0,1-.68.94l-4.48.6c-1.09.15-2.16.35-3.26.55-.5.07-.65,0-.75-.52-.2-1-.47-2.07-.67-3.09-.12-.6-.17-1.22-.3-1.82-.25-1.32-.55-2.64-.8-4-.37-1.89-.69-3.81-1.07-5.7-.22-1.15-.49-2.32-.72-3.46-.17-.83-.3-1.62-.42-2.44-.2-1-.38-2.07-.57-3.12-.25-1.32-.48-2.61-.73-3.93s-.49-2.42-.72-3.61c-.15-.73-.27-1.47-.4-2.19-.3-1.82-.6-3.67-.87-5.48C265.21,103.63,265.21,103.43,265.18,103.2Z"/><path d="M198.59,126.36v13.8c0,1.2-.1,2.37-.13,3.56a.45.45,0,0,1-.42.5c-.12,0-.22,0-.35.05-1.79.07-3.61.17-5.4.25-.75,0-1.5.12-2.24.15s-.75-.08-.8-.7c-.07-.9-.12-1.82-.22-2.74-.13-1.44-.28-2.91-.43-4.36-.17-1.76-.4-3.53-.57-5.33-.3-3-.6-5.95-.87-8.94-.23-2.34-.4-4.7-.6-7-.15-1.65-.27-3.29-.4-5-.15-2.09-.3-4.18-.45-6.25v-.45c0-.67.15-.75.85-.8,2-.17,4-.39,6-.52a31.41,31.41,0,0,1,3.36.08,4.9,4.9,0,0,1,1.47.27,1,1,0,0,1,.55.62,17.07,17.07,0,0,1,.42,2.94c.15,6.63.25,13.25.37,19.87Z"/><path d="M312,89.68v7.17c0,.5-.15.65-.65.58-1.47-.15-2.94-.33-4.41-.48-.39,0-.42-.3-.42-.59-.05-1.57-.07-3.14-.12-4.69-.08-3.21-.13-6.45-.2-9.66,0-.72,0-.77.72-.72,1.42.07,2.86.15,4.28.25.78,0,.92.17.92.94,0,2.39,0,4.79,0,7.18C312.05,89.68,312,89.68,312,89.68Z"/><path d="M191.54,87.36V81.94c0-.63.05-.7.67-.65,1.42.07,2.84.1,4.24.27.92.1,1.09.15,1.09,1.12-.07,4.49-.1,9-.22,13.43,0,1.61.1,1.37-1.35,1.24-1.22-.1-2.46-.25-3.68-.4-.33,0-.38-.25-.4-.52,0-1.42-.15-2.86-.17-4.28,0-1.6,0-3.19,0-4.79Z"/><path d="M157.25,79.82h2.19c.62,0,.75.1.82.72.15,1.4.28,2.79.4,4.19.23,2.54.42,5,.62,7.59.05.67.05,1.37.1,2a1.61,1.61,0,0,0,.08.48c.15.62,0,.74-.6.74-1.44,0-2.89,0-4.33,0a.41.41,0,0,1-.48-.42c-.1-.65-.22-1.32-.29-2-.2-1.67-.38-3.36-.55-5l-.38-3.59c-.12-1.27-.27-2.54-.39-3.81,0-.07,0-.17,0-.25-.1-.45,0-.57.47-.6.75,0,1.55,0,2.37,0Z"/><path d="M271.83,79.82h2.24c.65,0,.8.17.85.8.22,2.86.47,5.7.7,8.56.15,1.92.32,3.84.47,5.76.05.54-.08.67-.62.64-.93,0-1.82-.15-2.74-.17a5.72,5.72,0,0,0-1.3.12c-.6.1-.79,0-.87-.62-.2-1.44-.37-2.91-.55-4.36-.15-1.22-.2-2.44-.4-3.63a31.34,31.34,0,0,1-.39-3.71c-.05-.93-.23-1.82-.35-2.74-.05-.45.15-.63.57-.63.85,0,1.62,0,2.39,0Z"/><path d="M187.88,81.51h.5c.42,0,.62.18.65.6.15,3.11.27,6.25.44,9.36.08,1.65.25,3.29.35,4.91.05.77,0,.82-.82.85l-3,.17c-.7,0-.85-.05-.92-.72-.2-1.87-.38-3.76-.58-5.63-.12-1.37-.27-2.71-.39-4.08-.13-1.17-.25-2.32-.4-3.49a3.25,3.25,0,0,1-.13-.85c0-.2.25-.52.43-.54,1.29-.25,2.59-.45,3.88-.65A.07.07,0,0,0,187.88,81.51Z"/><path d="M268.54,95.11c0,.92,0,1-1,1s-2,.27-3,.42c-.39,0-.52-.08-.59-.47-.33-1.67-.73-3.34-1.08-5-.19-.95-.34-1.92-.54-2.86s-.5-2.07-.7-3.12-.4-2.14-.57-3.21c0-.12.17-.35.3-.4,1.37-.37,2.71-.69,4.08-1,.65-.15.87,0,1,.72.23,1.52.5,3,.75,4.53.15,1,.27,2,.42,3,.25,1.74.52,3.46.77,5.2C268.44,94.36,268.49,94.74,268.54,95.11Z"/><path d="M149.78,96.63c-.13-.13-.38-.3-.45-.52-.22-.88-.4-1.75-.57-2.62-.28-1.29-.53-2.59-.77-3.88-.18-.9-.35-1.82-.53-2.72s-.42-1.89-.62-2.84c-.15-.67-.3-1.37-.4-2a.66.66,0,0,1,.32-.5c1.32-.37,2.62-.69,3.94-1,.85-.2,1.1,0,1.22,1,.17,1.22.27,2.44.45,3.66s.47,2.69.67,4,.37,2.77.57,4.16c.08.57.23,1.12.33,1.67s0,.95-.6,1C152.22,96.28,151.07,96.43,149.78,96.63Z"/><path d="M304.33,94.59v2.09c0,.35-.13.55-.5.57-1.12,0-2.24.13-3.36.2-.45,0-.67-.1-.7-.57-.1-1.12-.22-2.24-.35-3.34-.22-1.89-.47-3.76-.72-5.65,0-.15,0-.33,0-.5L298.3,84a6.28,6.28,0,0,1,0-1.37.67.67,0,0,1,.37-.47c1.45-.22,2.89-.42,4.33-.62.43,0,.58.15.6.55.15,2.44.3,4.88.45,7.34C304.13,91.2,304.23,93,304.33,94.59Z"/></svg>