<svg id="图层_1" data-name="图层 1" xmlns="http://www.w3.org/2000/svg" viewBox="0 0 400 200"><defs><style>.cls-1{fill:#646464;}.cls-2{fill:#fc9153;}</style></defs><title>didi_logo</title><g id="layer1"><g id="g387"><g id="g383"><path id="path375" class="cls-1" d="M191.72,69.62h18.8c18.92,0,34,11.64,34,31.26,0,21.39-12.93,32.32-34,32.32h-18.8Zm9,55.59h9.52c15.63,0,24.33-7.52,24.33-24,0-14.8-10.11-23.62-23.27-23.62H200.65v47.6Z"/><path id="path377" class="cls-1" d="M265.63,76.32H256V66.69h9.64Zm-9.17,10.46H265v46.53h-8.58Z"/><path id="path379" class="cls-1" d="M281,69.62h18.8c18.92,0,34,11.64,34,31.26,0,21.39-12.92,32.32-34,32.32H281Zm9.17,55.59h9.52c15.62,0,24.32-7.52,24.32-24,0-14.8-10.11-23.62-23.27-23.62H290.07v47.6Z"/><path id="path381" class="cls-1" d="M354.94,76.32H345.3V66.69h9.64Zm-9.05,10.46h8.58v46.53h-8.58Z"/></g><path id="path385" class="cls-2" d="M107.11,128c21.15-.71,37.84-17.51,38.07-38.31v-18h23.27V91.6c-.47,32.31-28.56,57.69-61.34,58.4h0c-33.37-.24-61.69-25.85-62-58.4V56c0-3.64,2.35-6,5.88-6h94.24V71.74H71.27a2.84,2.84,0,0,0-3.06,3.05V89.37A39.21,39.21,0,0,0,107.11,128Z"/></g></g></svg>