<svg id="图层_1" data-name="图层 1" xmlns="http://www.w3.org/2000/svg" viewBox="0 0 400 200"><defs><style>.cls-1{fill:#003478;}.cls-2{fill:#fff;}</style></defs><title>fute_logo</title><g id="layer1"><path id="path737" class="cls-1" d="M200,50C126,50,66.66,72.18,66.66,100c0,27.64,59.82,50,133.34,50s133.34-22.43,133.34-50S273.52,50,200,50"/><path id="path741" class="cls-2" d="M252.52,110.59c0,.23.34.45.63.55.11,0,.16.11,0,.35a29,29,0,0,1-2.64,4.36,16.39,16.39,0,0,1-3.34,3.61c-2,1.63-4.7,3.4-7,2.21a3.44,3.44,0,0,1-1.42-3.06c0-3.2,1.48-6.49,4.11-9.72,3.2-3.94,6.74-6,9.07-4.87s1.64,3.93.56,6.12a.56.56,0,0,0,0,.45m25.81-24.93c.18-.31,0-.53-.39-.53H271.2c-.5,0-.76.06-1,.53-.77,1.48-10.19,15.59-11.94,18.33-.3.42-.66.36-.7-.12a5.88,5.88,0,0,0-3.8-4.39,9.57,9.57,0,0,0-5.05-.58,18,18,0,0,0-8.29,3.89c-3.65,2.78-6.81,6.38-10.88,9-2.22,1.45-5.27,2.72-7.3.83-1.85-1.71-1.64-5.5,1.18-8.44.3-.31.66,0,.6.22A3.72,3.72,0,0,0,225.1,108a4,4,0,0,0,4.5.49,5.9,5.9,0,0,0,3.13-4.52A5.15,5.15,0,0,0,228,98.14a9.49,9.49,0,0,0-6.78,2.46,13,13,0,0,0-2.67,2.94c-.23.33-.59.36-.58-.13.11-3.83-1.48-6-4.65-6.06-2.46-.06-5.09,1.28-7.14,2.91a66.55,66.55,0,0,0-6.32,6.44c-.26.28-.49.27-.56-.27a12.89,12.89,0,0,0-1.88-6.75,1.57,1.57,0,0,0-2-.5A15.18,15.18,0,0,0,193,100.6a1.34,1.34,0,0,0-.41,1.52,17.73,17.73,0,0,1-.65,11.76c-1.42,3.34-4.17,6.35-7.4,7.37-2.13.67-4.34.34-5.71-1.54-1.88-2.61-1.12-7.14,1.68-10.9a21.2,21.2,0,0,1,9.63-6.77.55.55,0,0,0,.38-.79c-.19-.58-.5-1.38-.62-1.75-.33-.87-1.25-1-2.37-.89A20,20,0,0,0,180.3,101c-6.05,3.24-9.09,9.51-10.42,12.87a13.51,13.51,0,0,1-1.89,3.51,35.14,35.14,0,0,1-4.35,4.21.78.78,0,0,0-.17.89,9.43,9.43,0,0,0,1.68,2.21,1,1,0,0,0,.94-.19,22.7,22.7,0,0,0,4.26-3.8c.31-.38.64-.22.8.36a9.42,9.42,0,0,0,6.06,6.45c5.55,1.87,11.31-.84,15.65-5.56a60.55,60.55,0,0,0,4.82-6.23c1.79-2.22,5.33-7.2,9.55-10.39,1.54-1.17,3.37-2.07,4.29-1.48.74.48,1,1.59-.21,3.75-4.3,7.84-10.62,17.06-11.78,19.3-.21.38,0,.69.38.69h6.52a.76.76,0,0,0,.66-.41c3.3-5.16,6.4-10.07,9.73-15.15.19-.3.36-.07.36.06a8.56,8.56,0,0,0,1.06,3.85,5.77,5.77,0,0,0,5,2.81,9.37,9.37,0,0,0,4.06-.86,14.11,14.11,0,0,0,3.34-1.79c.49-.34.58.24.57.32-.77,4.1.18,9,4.25,11,4.87,2.4,10.23-1,13.31-4,.3-.3.62-.27.65.37a5.63,5.63,0,0,0,1.56,3.51c2.58,2.59,7.79,1.56,13-2.48a66,66,0,0,0,10-10.13.46.46,0,0,0,0-.64c-.48-.5-1.18-1.08-1.66-1.53a.6.6,0,0,0-.72,0c-3.25,3.09-6.18,6.62-10.41,9.54-1.43,1-3.7,1.8-4.72.41a2.26,2.26,0,0,1,0-2.25c1.24-3.08,20.77-32.81,21.78-34.56"/><path id="path745" class="cls-2" d="M186.45,89.24c.09.44.26.53.46.49a4.81,4.81,0,0,0,2.73-2c.58-.86.86-2.1.28-2.6a1.55,1.55,0,0,0-2,.23,4.45,4.45,0,0,0-1.47,3.84m-49.77,38.28c-7.28,0-13.7-4.45-14.43-12.24A15.7,15.7,0,0,1,125.5,104a16.1,16.1,0,0,1,8.94-5.75c1-.18,2.37-.07,2.93.6a1.59,1.59,0,0,1-.25,2.6,15,15,0,0,0-6.63,6.11,7.48,7.48,0,0,0,.37,7.74c2.92,4.41,11.07,4.53,18.65-2.51a64.85,64.85,0,0,0,5.27-5.34A118.34,118.34,0,0,0,163.66,96a.26.26,0,0,0,.05-.21c0-.08-.1-.1-.23-.11a13.56,13.56,0,0,0-8,2.84,1.56,1.56,0,0,1-2.22-.24,1.77,1.77,0,0,1,.69-2.38c4-2.81,8.45-3.32,12.95-4.08a.74.74,0,0,0,.57-.33c1.85-2.37,3.25-4.51,5.22-6.91a52.69,52.69,0,0,1,6.51-6.35,28.75,28.75,0,0,1,6.28-4.12c.47-.24-.06-.54-.21-.54-9.95-1.87-20.3-4.29-30.19-.63-6.85,2.56-9.85,8-8.41,11.62,1,2.57,4.42,3,7.59,1.44A17.08,17.08,0,0,0,161,80c1-1.48,3-.41,1.9,2.17-2.89,6.8-8.42,12.2-15.15,12.42-5.73.19-9.43-4-9.42-9.23,0-10.26,11.45-17,23.45-18,14.45-1.2,28.14,2.65,42.49,4.39,11,1.33,21.54,1.36,32.59-1.18A1.66,1.66,0,0,1,239,72.41c-.11,1.91-1.58,3.75-5.22,5.73a26.67,26.67,0,0,1-13,3c-10.93.09-21.12-4.17-31.67-6.46,0,.46.14,1-.25,1.3-5.84,4.31-11.12,8.68-14.65,14.82-.12.15-.06.28.15.27,3.07-.17,5.83-.25,8.69-.47.51,0,.52-.17.48-.54a7.14,7.14,0,0,1,2.23-6.19c1.9-1.71,4.29-1.9,5.87-.67,1.8,1.4,1.64,3.92.66,5.81a7,7,0,0,1-4.24,3.44s-.34.08-.29.38c.06.48,2.23,1.68,2.41,2a1,1,0,0,1-.24,1.14,1.38,1.38,0,0,1-1.05.5,2.3,2.3,0,0,1-1.07-.39,10.45,10.45,0,0,1-3-2.41c-.28-.35-.42-.36-1.11-.32-3.1.18-7.93.65-11.21,1.06-.79.09-.91.24-1.07.52-5.23,8.61-10.8,17.9-16.93,24.12-6.56,6.67-12,8.42-17.82,8.47"/><path id="path749" class="cls-2" d="M200,58.18C131.91,58.18,76.72,77,76.72,100S131.91,141.86,200,141.86,323.27,123,323.27,100,268.08,58.18,200,58.18m0,87.47c-70.57,0-127.78-20.43-127.78-45.64S129.43,54.38,200,54.38,327.76,74.81,327.76,100,270.56,145.65,200,145.65"/></g></svg>