<svg id="图层_1" data-name="图层 1" xmlns="http://www.w3.org/2000/svg" viewBox="0 0 400 200"><defs><style>.cls-1{fill:#f40009;}</style></defs><title>kl_logo</title><path class="cls-1" d="M302.13,135l-.94.84c-1.33,1.2-2.7,2.48-4.36,1.85a1.69,1.69,0,0,1-.87-1.25c-.08-3.42,1.45-6.6,2.93-9.69l.38-.8c4.28-7.19,9.25-15.66,16.56-21.55,1.24-.89,2.58-1.64,4-1.06a2,2,0,0,1,.71,1.36,2.25,2.25,0,0,1-.23.75c-2,3.31-4,6.79-5.87,10.14-3.68,6.6-7.51,13.42-12.3,19.41ZM262.34,118.2c-.28.19-5.24-1.46-6.21-6-.82-3.94,1.89-7,4.51-8.6a4.54,4.54,0,0,1,4.08-.77c1.16.78,1.48,2.17,1.48,3.67a20.25,20.25,0,0,1-.22,2.73l0,.19a37.19,37.19,0,0,1-3.62,8.83Zm-18.87,18.71a4.37,4.37,0,0,1-.7-2.46c-.11-5.45,5.73-15.23,9.85-20.56h0c1.75,3.79,5.68,6.22,8.06,7.25-2.93,6.57-13,20.65-17.22,15.77Zm71.51.76c-1,.67-2.36.16-1.84-1.37,1.27-3.9,6.34-11.85,6.34-11.85l14.14-25.24-9.74,0c-.46.76-1.44,2.51-1.44,2.51A12.9,12.9,0,0,0,320.08,99c-2.38-1.5-5.87-.78-8.27.59-10.44,6.15-18,18.26-24,27.7,0,0-6.3,10.5-9.82,11.29-2.74.23-2.47-3.47-2.36-4.33,1.05-6.23,3.5-12.16,6-17.54a135.07,135.07,0,0,0,16-13.17c11.34-10.91,20.89-23.25,22.29-26a22.3,22.3,0,0,1-3.31.37c-8.72,12.23-26.57,30-32,32.69,2.39-5.8,17.84-33.45,31-46.7l2.07-2c3.21-3.15,6.53-6.38,9.13-6.92.28,0,.63,0,.94.64.12,2.44-.79,4.25-1.83,6.31l-1.45,3a33.26,33.26,0,0,0,3.43-.84c1.57-3,3.32-6.33,2.66-10.3a3,3,0,0,0-2.36-2.47c-3.95-.74-8.24,2.2-11.69,4.57l-.14.08c-17.74,14-32.69,34.11-45.74,61.56-.95.73-4.62,1.6-5.25,1.19a45,45,0,0,0,3.72-10.16,29.58,29.58,0,0,0,.26-3.37c0-2.39-.59-4.64-2.74-6.19-2.52-1.25-5.62-.65-7.71.3-9.37,3.92-16.36,13.56-21.4,21.5-2.7,5-5.4,10.44-6.13,16.62-.52,4.84.57,8,3.32,9.5s6.39-.08,7.79-.8c9.49-5,16.1-15.09,21.31-24.29a30.05,30.05,0,0,0,5.23-.68.13.13,0,0,1,.09,0c-.13.42-1.23,3.76-1.23,3.76-3.29,9.74-4.81,16.36-1.66,20.27,4.49,5.52,11.89-.23,17.9-7.81-1.27,9.07,3.44,10.47,7,9.77,4.11-1.13,8.68-5.53,10.8-7.79-.68,2.64-.48,7.37,3.27,7.83,2.56.47,4.48-.93,6.69-2.14,8-4.36,17.45-18.84,19.92-23h-3.25c-3.5,5.33-8,12.32-13.59,15.65ZM192.08,84.05l9.12,0,5.12-8.37-9.12,0ZM337.67,61.41c-6.94,4-14.14,6.55-22.86,5.69-2.41,2.73-4.76,5.55-6.92,8.44,12.25,3.08,25.21-3.88,32.43-10.49a51.23,51.23,0,0,0,11.55-15,60.66,60.66,0,0,1-14.2,11.41ZM261,59.53C259.6,76.16,246.7,86,243.5,86.75c-1.93.39-5.24-.46-2.31-7.45,4.32-9.41,11.72-17.41,19.67-21.52a4.45,4.45,0,0,1,.14,1.75Zm-25.06,42a5.66,5.66,0,0,0-5.48-3.13c-7.61.72-15,7-18.91,16a45.71,45.71,0,0,0-3.86,14.5,40.22,40.22,0,0,1,12.64-9.69,26.38,26.38,0,0,1,4.51-11c1.43-2.15,4.3-5.61,7.53-4.7,2.83.94,1.86,8.76-1.87,16.33a52.39,52.39,0,0,1-11.28,15c-3.79,3.24-9.4,7.15-14.33,4.16-3.1-1.82-4.69-5.66-4.37-10.61,1.44-14,7.79-26,16.9-39.67C226.81,76,237.17,63,251.16,56c2.85-1.45,5.49-1.79,7.78-.91,0,0-13.12,7.27-19.35,20.66-1.59,3.4-3.79,8-1.54,12,1.17,2.11,3.24,2.27,4.91,2.15,7.68-1.8,12.62-9,16.65-15.56C262,69.42,264,64.47,264,59c0-.67,0-1.55-.1-2.22,3.67-2,11.2,1.47,11.2,1.47,5.89,1.93,18.44,11.48,22.67,13.3,2.05-2.39,5.43-6,7.33-7.83L302.34,62c-4.42-2.68-9.1-5.23-13.71-7.74-10.45-5.67-18.95-3.65-23.27-2.08-1.7.62-3.25,1.15-3.25,1.15-3.22-3.49-8.48-3.14-12.36-2.18C235.82,55.18,222.89,65,209.06,82c-10.17,13.3-16.47,24.77-19.81,36.1-2.58,7.63-3.33,18.83,3,25.46,5.41,5.63,12.57,4.38,17.62,2.34,10.93-5.43,20.74-17.08,25.61-30.47,1.17-4,2.47-9.6.42-13.87ZM114.49,89l-1.85,4.28c-.26.23-.68.12-1.17,0l-.82-.14a7.45,7.45,0,0,1-5.18-4.57c-.84-4,2.57-7.16,4.08-8.3s3.68-1.54,5-.52a5.24,5.24,0,0,1,1.12,3.5A18.88,18.88,0,0,1,114.49,89Zm-3.93,8a2.9,2.9,0,0,1-.13.34s-4.16,6.82-4.16,6.82c-2.51,3.37-5.65,7.61-9.58,9.65-1.16.39-2.77.65-3.6-.38-1.74-2.08-.85-5-.13-7.31l.25-.83c2.08-5.68,5.38-10.7,8.59-15.35a.39.39,0,0,1,.17-.06s0,0,0,.09c2,3.88,5.84,5.68,8.69,6.5t0,.09a1.33,1.33,0,0,1-.15.44Zm52.23-4.63a133.28,133.28,0,0,1,8.6-10.7c4.44-3.94,6.23-2.22,6.39-1-4.14,7.46-9,16-13.62,23.7,0,0-1.44,2.2-1.44,2.2-2,3.12-4.07,5.79-7.42,7.67a2.17,2.17,0,0,1-1.79-.19,1.9,1.9,0,0,1-.81-1.84c.19-2.39,2.61-9.71,10.09-19.85ZM116.44,75.61c-5.78-3.76-17.34,3.5-26.58,15.93-8.45,11.15-12.08,24.09-8.07,30.06,5.95,7,16.93-3.25,21.6-8.74l.6-.65a68.72,68.72,0,0,0,8-11.5l2.28-3.79c1.35-.26,3-.65,4.82-1.18,0,.08-7,11.86-6.26,17.7.23,1.78.08,8.29,6.43,10.24,8.47,1.39,15.22-5.19,21.16-11.05,0,0,1-1,1.59-1.53-.14.59-.33,1.36-.33,1.36-2.46,8.63.89,10.43,3,11.09,6.33,1.82,13.84-7.38,13.87-7.38-.19,2.89-.75,5.28,2.3,7.19,2.88,1,5.78-.55,8-2,8-5.64,14.35-14.45,19.51-22.06H185s-8.12,11.8-13.39,14.37c0,0-1,.5-1.52.11-.69-.58-.42-1.8,0-2.66,0-.06,20.26-35.39,20.26-35.39l-9.6,0s-1,1.7-1.13,1.81c-.07-.06-.22-.35-.33-.49-6-8.21-19.41,4.49-29.51,19.2-3.89,5.66-8.84,12-14,16.63,0,0-7.61,7-10.89,2-1.2-2.11-.84-5.2-.18-7.23C128.5,96.82,135,87,142.45,81c2.1-1.64,4.39-2.12,5.52-1.43a2.4,2.4,0,0,1,.58,3.31,5.37,5.37,0,0,0-4.25,1.65c-2.22,2.34-3,4.6-2.27,6.71,3.45,4.88,10.28-4.82,9.94-10.71A6.34,6.34,0,0,0,149,75.49c-2.51-1.49-6.34-1.09-8.81.11-3.31,1.26-8.54,5.64-11.6,9-3.84,4.27-10.44,9-12.51,8.49.67-1.81,6.23-13.25.34-17.52Zm48.45,61.73c-11.33-7.25-26.68-8.49-51.42-1.55-26.37,6.28-35.15,10.29-46.73,2.34-4.45-3.91-6.06-10.22-4.9-19.31C64.55,104,72,89.7,85.14,73.84c7.36-8.25,14.19-15.33,23.23-18.19,6.93-1.8,6.3,3.65,5.46,4.43a6.74,6.74,0,0,0-3.52.9c-.93.72-3.48,3.07-3.61,6.21-.18,4.81,4.79,3.8,6.93,1.15,2.3-3,5.71-8.69,3-14a7.85,7.85,0,0,0-5.5-3.62c-8.29-.45-16,3.52-23.1,7.91C72.5,69.49,60.08,84.51,53.09,100.94c-4,9.91-7.67,24.1-2.13,35.62,4.29,8,13.15,12.23,23.7,11.31,7.4-.8,16.34-3.22,22.36-4.69s36.8-12.14,47,6.26a13.69,13.69,0,0,1,11.76-6.71c6.92-.66,16.91,2,24.19,7.27-2.43-3.63-9.31-9-15-12.66Z"/></svg>