<svg id="图层_1" data-name="图层 1" xmlns="http://www.w3.org/2000/svg" viewBox="0 0 400 200"><defs><style>.cls-1{fill:#f05b48;}</style></defs><title>mb_logo</title><path class="cls-1" d="M288.85,126.56h3a.58.58,0,0,0,.46-.94L271.06,98l20.85-16.77a.58.58,0,0,0-.36-1H285.1a8.22,8.22,0,0,0-5.28,1.86l-16.23,13V80.53a5.84,5.84,0,0,0-2-4.39l-4-3.5a.58.58,0,0,0-.82.06.57.57,0,0,0-.14.38v46.26a5.86,5.86,0,0,0,1.93,4.35l4,3.63a.58.58,0,0,0,.82,0,.57.57,0,0,0,.14-.38V104l2.06-1.65,16.91,22c1.1,1.4,3.28,2.22,6.28,2.22Zm-87.26-6.1A17.39,17.39,0,0,1,184.3,103V103a17.3,17.3,0,1,1,17.29,17.51ZM225.81,103a24.37,24.37,0,0,0-24.22-24.44,24,24,0,0,0-17.29,7.36v-4.7a5.89,5.89,0,0,0-2-4.39l-4-3.49a.57.57,0,0,0-.81,0,.62.62,0,0,0-.14.39v29.05c0,.06,0,.11,0,.17s0,.11,0,.17V104h0a24.21,24.21,0,0,0,48.41-1Zm-79.7,17.47A17.46,17.46,0,1,1,163.41,103a17.41,17.41,0,0,1-17.3,17.46ZM170.33,103a24.22,24.22,0,1,0-24.22,24.45A24.37,24.37,0,0,0,170.33,103Zm72.84,24.32a.59.59,0,0,0,.82,0,.63.63,0,0,0,.14-.4V81.22a5.85,5.85,0,0,0-2-4.39l-4-3.49a.56.56,0,0,0-.8,0,.58.58,0,0,0-.15.39v45.56a5.85,5.85,0,0,0,1.93,4.34l4,3.64ZM107.35,95.82v24a5.83,5.83,0,0,0,2.19,4.58l3.75,3a.57.57,0,0,0,.92-.45V96c0-9-6.76-16.68-15.57-17.12a16.26,16.26,0,0,0-13.85,6.56,16.08,16.08,0,0,0-12.07-6.56A16.53,16.53,0,0,0,55.5,95.49v31.43a.57.57,0,0,0,.92.46l3.75-3a5.87,5.87,0,0,0,2.2-4.58v-24a9.84,9.84,0,0,1,8.87-10,9.6,9.6,0,0,1,10.18,9.66v24.32a5.86,5.86,0,0,0,2.19,4.58l3.75,3a.58.58,0,0,0,.93-.46V96c0-.16,0-.32,0-.48h0a9.6,9.6,0,0,1,10.18-9.66c5,.34,8.87,4.85,8.87,10ZM335.7,98.4l-30.91.53a1.16,1.16,0,0,1-1.12-1.5,17.45,17.45,0,0,1,16.42-12.69,16.85,16.85,0,0,1,5.23.71,17.34,17.34,0,0,1,11.47,11.42,1.17,1.17,0,0,1-1.09,1.53Zm8.8,3.34a24.15,24.15,0,0,0-44.67-12.58,23.47,23.47,0,0,0-3.23,7.91,24.2,24.2,0,0,0,46.09,14.25.59.59,0,0,0-.33-.76.71.71,0,0,0-.21,0l-3.62,0a5.73,5.73,0,0,0-4.56,2.22,17.47,17.47,0,0,1-13.48,6.85,17,17,0,0,1-12.29-4.89,17.26,17.26,0,0,1-4.82-8.75l37.69-.64a3.51,3.51,0,0,0,3.43-3.55Z"/></svg>