<svg id="图层_1" data-name="图层 1" xmlns="http://www.w3.org/2000/svg" viewBox="0 0 400 200"><defs><style>.cls-1{fill:#f79410;}.cls-2{fill:#ff5f00;}.cls-3{fill:#eb001b;}.cls-4{fill:#f79e1b;}</style></defs><title>马上到！_logo</title><path class="cls-1" d="M295.21,137.17v-2.33h-.6l-.71,1.6-.69-1.6h-.61v2.33H293v-1.76l.65,1.52h.45l.66-1.52v1.76Zm-3.85,0v-1.93h.78v-.39h-2v.39h.78v1.93Z"/><path class="cls-2" d="M226.24,147.18H173.75V52.84h52.49Z"/><path class="cls-3" d="M177.11,100A59.87,59.87,0,0,1,200,52.83a60,60,0,1,0,0,94.34A59.87,59.87,0,0,1,177.11,100"/><path class="cls-4" d="M297,100A60,60,0,0,1,200,147.17a60,60,0,0,0,0-94.34A60,60,0,0,1,297,100"/></svg>