<svg id="图层_1" data-name="图层 1" xmlns="http://www.w3.org/2000/svg" viewBox="0 0 400 200"><defs><style>.cls-1{fill:#1c4598;}</style></defs><title>nokia_logo</title><path class="cls-1" d="M39.15,129.26H22V71H51.66l34,43.52V71H102.8v58.29h-29L39.15,85v44.26m145.66-18c0,8.1-1.43,10.89-3.8,13.57-3.64,4-8.93,5.19-19.12,5.19H132.62c-10.19,0-15.49-1.2-19.12-5.19-2.37-2.68-3.81-5.47-3.81-13.57V88.76c0-8.09,1.44-10.88,3.81-13.57,3.63-4,8.93-5.19,19.12-5.19h29.27c10.19,0,15.48,1.2,19.12,5.19,2.37,2.69,3.8,5.48,3.8,13.57v22.48m-23.64,4c3.91,0,5.29-.23,6.23-1.08s1.27-1.83,1.27-5.26V91.11c0-3.43-.39-4.45-1.27-5.25s-2.32-1.09-6.23-1.09H133.34c-3.92,0-5.3.23-6.23,1.09s-1.27,1.82-1.27,5.25v17.78c0,3.43.39,4.46,1.27,5.26s2.31,1.08,6.23,1.08h27.83M209.72,71v58.29H191.81V71h17.91M240,71h23.65L231.71,98.23l36,31h-25.3l-32.69-30.4L240,71m31,0h17.91v58.29H271m86.2,0-5.3-10.15H317.25L312,129.26H292.23L324,71h22.26L378,129.26H357.21m-33.73-22.81h22.27L334.61,85.34l-11.13,21.11"/></svg>