<svg id="图层_1" data-name="图层 1" xmlns="http://www.w3.org/2000/svg" viewBox="0 0 400 200"><defs><style>.cls-1{fill:#034ea2;}</style></defs><title>sx_logo</title><path class="cls-1" d="M287.75,108.33c-.09-1-.1-1.47-.11-2V93.17a19.63,19.63,0,0,1,.13-2.06c.69-5.82,5.41-7.69,10.93-7.69s10.36,1.86,10.94,7.69a17.32,17.32,0,0,1,.06,2.06v1h-7.85V92.46a7,7,0,0,0-.1-1.18,2.82,2.82,0,0,0-3.1-2.27,2.87,2.87,0,0,0-3.1,2.27,6.7,6.7,0,0,0-.13,1.47V107a6.44,6.44,0,0,0,.08,1.18c.12.82.91,2.25,3.16,2.25a2.93,2.93,0,0,0,3.19-2.26,8.91,8.91,0,0,0,.07-1.18v-4.52h-3.2V97.92h11v8.36c0,.58,0,1-.12,2a7.43,7.43,0,0,1-3,5.55c28.88-13,45.9-27.59,43.72-40.07C346.31,50.29,275.66,43,192.59,57.43c-36.26,6.31-68.89,15.73-93.82,26.3a19.18,19.18,0,0,1,4.33-.45c4.41,0,10.5,1.06,10.5,7.84v2.19h-7.76V91.38a2.66,2.66,0,0,0-2.9-2.82,2.55,2.55,0,0,0-2.84,2.08,4,4,0,0,0,0,1.65c.87,3.64,12.7,5.59,14,12.11a15.61,15.61,0,0,1,0,5.11c-.73,5.19-5.37,7.12-11,7.12-5.86,0-11.33-2.1-11.33-9v-2.41h8.35v3c0,1.71,1.18,2.83,3.14,2.83s2.77-1.06,3-2.09a4.07,4.07,0,0,0-.07-2.31c-1.6-4-12.66-5.88-14-12.23a10.7,10.7,0,0,1-.07-4.21,7.19,7.19,0,0,1,2.92-4.87c-30,13.26-47.75,28.13-45.53,40.87,4.09,23.53,74.76,30.87,157.82,16.4,37.06-6.45,70.32-16.15,95.44-27a18,18,0,0,1-4.15.45C293.19,116,288.28,114,287.75,108.33ZM136.41,115.4l-4.15-28.25h-.17l-4.27,28.25h-8.41l5.77-31.14H139l5.75,31.14Zm41.43,0-.21-28h-.16l-5.2,28h-7.9l-5.21-28H159l-.2,28H151l.7-31.14h12.7l3.84,23.81h.17l3.85-23.81H185l.67,31.14Zm37.5-6c-.73,5.14-5.32,7-10.9,7-5.79,0-11.21-2.07-11.21-8.95l0-2.37h8.26v3c0,1.67,1.18,2.79,3.1,2.79s2.75-1,3-2.07a4.15,4.15,0,0,0-.07-2.28c-1.59-4-12.54-5.82-13.88-12.11a10.64,10.64,0,0,1-.07-4.16c.81-5,5.29-6.84,10.77-6.84,4.37,0,10.41,1,10.41,7.76v2.17h-7.71V91.47a2.61,2.61,0,0,0-2.85-2.79,2.54,2.54,0,0,0-2.82,2.07,3.82,3.82,0,0,0,0,1.61c.87,3.61,12.57,5.54,13.87,12A14.73,14.73,0,0,1,215.34,109.42Zm29.23-.79c-.55,5.81-5.15,7.7-10.87,7.7s-10.32-1.89-10.87-7.7c0-.29-.08-1.48-.07-2V84.25h7.87v23a7.33,7.33,0,0,0,.07,1.19,2.85,2.85,0,0,0,3,2.27,2.8,2.8,0,0,0,3-2.26,7.42,7.42,0,0,0,.08-1.19v-23h7.87v22.34C244.66,107.16,244.6,108.34,244.57,108.63Zm34.93,6.45H268.42l-7.69-25.29h-.17l.43,25.29h-7.66V84.26h11.56l7.16,24.45h.17l-.42-24.45h7.7Z"/><path class="cls-1" d="M95.13,85.31l3.64-1.58A10.37,10.37,0,0,0,95.13,85.31Z"/><path class="cls-1" d="M302.86,115.57a10.37,10.37,0,0,0,3.82-1.69C305.43,114.45,304.15,115,302.86,115.57Z"/></svg>