<svg id="图层_1" data-name="图层 1" xmlns="http://www.w3.org/2000/svg" viewBox="0 0 400 200"><defs><style>.cls-1{fill:#006341;}.cls-2{fill:none;}</style></defs><title>xbk_logo</title><path class="cls-1" d="M206.08,66.15a35.14,35.14,0,0,0-12.16,0c-.31,0-.42-.25-.19-.42L200,61l6.27,4.77C206.5,65.9,206.39,66.2,206.08,66.15ZM195.61,96.09a.7.7,0,0,0-.4.4c1.27,1,2.14,3.2,4.79,3.2s3.52-2.22,4.79-3.2a.7.7,0,0,0-.4-.4,24.29,24.29,0,0,1-8.78,0ZM200,92.36c-.74,0-.9-.28-1.4-.28a2.55,2.55,0,0,0-1.61.73.81.81,0,0,0,.21.48c1.07.16,1.56.76,2.8.76s1.73-.6,2.8-.76a.75.75,0,0,0,.21-.48,2.58,2.58,0,0,0-1.61-.73C200.9,92.08,200.73,92.36,200,92.36Zm60.39,11.43c-.08,1.45-.21,2.88-.39,4.3-6.84,1.13-9.29-5-16.3-4.66a42.85,42.85,0,0,1,1,4.55c5.78,0,8.11,5.4,14.55,4.61q-.51,2.47-1.22,4.89c-5.09.5-6.88-4.56-12.77-4.42.05.84.08,1.69.08,2.54,0,.47,0,1,0,1.41,5-.05,6.66,4.59,11.44,4.37q-.9,2.43-2,4.77c-3.44-.19-4.62-4.6-9.85-4.25-.16,1.14-.36,2.25-.6,3.36,4.55-.32,5.52,3.86,8.78,4.2q-1.24,2.26-2.67,4.41c-1.93-1-3.6-4.14-7.26-4.34.38-1.15.71-2.33,1-3.52a15.14,15.14,0,0,1-10.05-4.09c1-5.74-7.9-11.58-7.9-15.78,0-4.57,2.31-7.09,2.31-13.24A19.29,19.29,0,0,0,223,80a11.31,11.31,0,0,0-2.07-1.67c3.07,3.81,5.43,8.31,5.43,13.54,0,5.79-2.7,8.85-2.7,14.19s7.82,10,7.82,15.49c0,2.17-.69,4.29-3,8.45,3.51,3.51,8.09,5.42,11,5.42a1.68,1.68,0,0,0,1.81-1c.3-.64.58-1.3.84-2,3.18.12,4.64,3,6.4,4.16q-1.46,2-3,3.76c-1.18-1.31-2.77-3.5-5.09-4.11-.41.8-.85,1.6-1.32,2.38,2,.54,3.37,2.56,4.43,3.88-1.14,1.19-2.33,2.32-3.57,3.41a11.65,11.65,0,0,0-3.32-3.55c-.49.67-1,1.33-1.55,2a10.4,10.4,0,0,1,2.82,3.31q-2.15,1.72-4.43,3.25c-.76-6.14-9.14-10.35-6.88-17.48A9.33,9.33,0,0,0,225,138.1c0,5.16,5.5,9.25,5.93,14.38-1.13.68-2.3,1.32-3.49,1.93-.19-5.64-6-11.8-6-16.43,0-5.16,6.76-10.35,6.76-16.44s-7.8-10.32-7.8-15.67,3.32-8.43,3.32-15.29a18.28,18.28,0,0,0-6.08-13.35,9.59,9.59,0,0,0-2.07-1.44c3.48,4.17,5.5,8,5.5,13.7,0,6.45-3.8,10-3.8,16.34s7.65,9.83,7.65,15.71-7.12,10.85-7.12,16.9c0,5.5,6.28,11,6.37,17.52-1.37.59-2.77,1.14-4.2,1.64.8-6.6-6.27-13.4-6.27-18.78,0-5.88,7.4-10.94,7.4-17.28s-7.52-9.29-7.52-15.81,4.61-10.11,4.61-17.3a17.53,17.53,0,0,0-6.81-13.77l-.26-.2c-.38-.28-.69.06-.42.4A18.47,18.47,0,0,1,215,87.4c0,6.58-5.3,11.92-5.3,18.3,0,7.52,7.12,9.67,7.12,15.84s-7.63,11.11-7.63,17.66c0,6.08,7.22,12.82,6,19.83-1.45.38-2.92.7-4.41,1,1.36-8.73-5.72-15-5.72-20.72,0-6.18,7.9-11.69,7.9-17.74,0-5.7-5.67-7.56-6.42-13.39a1.36,1.36,0,0,0-1.62-1.24,19.31,19.31,0,0,1-4.94,1,19.75,19.75,0,0,1-4.95-1,1.36,1.36,0,0,0-1.62,1.24c-.75,5.83-6.42,7.69-6.42,13.39,0,6,7.9,11.56,7.9,17.74,0,5.72-7.08,12-5.72,20.72-1.49-.27-3-.59-4.41-1-1.24-7,6-13.75,6-19.83,0-6.55-7.63-11.49-7.63-17.66s7.12-8.32,7.12-15.84c0-6.38-5.3-11.72-5.3-18.3a18.49,18.49,0,0,1,4.39-12.54c.27-.34,0-.68-.42-.4l-.26.2a17.48,17.48,0,0,0-6.8,13.76c0,7.19,4.61,10.8,4.61,17.31s-7.52,9.46-7.52,15.8,7.39,11.4,7.39,17.28c0,5.39-7.06,12.19-6.26,18.78-1.43-.5-2.83-1.05-4.2-1.64.09-6.53,6.37-12,6.37-17.52,0-6.05-7.12-11-7.12-16.9s7.65-9.39,7.65-15.71S179,95.93,179,89.48c0-5.74,2-9.53,5.49-13.7a9.78,9.78,0,0,0-2.06,1.44,18.3,18.3,0,0,0-6.08,13.35c0,6.86,3.32,9.94,3.32,15.29s-7.8,9.57-7.8,15.67,6.76,11.28,6.76,16.44c0,4.63-5.82,10.8-6,16.43-1.18-.61-2.35-1.25-3.49-1.93.44-5.13,5.94-9.22,5.94-14.38a9.33,9.33,0,0,0-1.63-4.72c2.26,7.13-6.12,11.34-6.88,17.48-1.53-1-3-2.1-4.43-3.25a10.72,10.72,0,0,1,2.81-3.31c-.53-.64-1-1.3-1.55-2a11.77,11.77,0,0,0-3.32,3.55q-1.84-1.63-3.56-3.4c1.06-1.33,2.43-3.35,4.42-3.89-.46-.78-.9-1.57-1.31-2.38-2.32.61-3.91,2.81-5.09,4.11-1.06-1.21-2.08-2.46-3-3.76,1.76-1.15,3.22-4,6.39-4.16.27.66.55,1.32.84,2a1.71,1.71,0,0,0,1.82,1c3,0,7.52-1.91,11-5.42-2.28-4.16-3-6.28-3-8.45,0-5.51,7.82-10.14,7.82-15.48s-2.7-8.41-2.7-14.2c0-5.22,2.36-9.73,5.43-13.53A11.25,11.25,0,0,0,177.05,80a19.29,19.29,0,0,0-5.56,12.91c0,6.15,2.31,8.68,2.31,13.24,0,4.2-8.91,10-7.9,15.78A15.16,15.16,0,0,1,155.84,126c.28,1.2.61,2.37,1,3.53-3.65.19-5.32,3.3-7.25,4.33q-1.42-2.15-2.67-4.41c3.25-.34,4.23-4.52,8.77-4.2-.23-1.11-.44-2.22-.59-3.35-5.23-.35-6.42,4.06-9.85,4.24q-1.09-2.33-2-4.77c4.78.22,6.41-4.42,11.43-4.36,0-.47,0-.94,0-1.42,0-.85,0-1.7.07-2.54-5.89-.13-7.68,4.92-12.77,4.42-.46-1.61-.87-3.24-1.21-4.89,6.43.8,8.76-4.61,14.55-4.61a43.41,43.41,0,0,1,1-4.55c-7-.3-9.46,5.8-16.31,4.66-.17-1.41-.3-2.85-.38-4.29,8,.89,10.94-5.66,18.19-4.86a41,41,0,0,1,2.37-5c-9.08-1.6-12.17,6-20.62,4.83a60.47,60.47,0,0,1,120.9,0c-8.45,1.16-11.54-6.43-20.62-4.84a43.41,43.41,0,0,1,2.37,5C249.44,98.14,252.43,104.68,260.39,103.79ZM174,78.43A15.72,15.72,0,0,0,159.56,80a15.82,15.82,0,0,0-6.35-10.39.54.54,0,0,0-.89.51c.7,9.06-4.59,16.92-11.1,23.82,6.71,2,12.41-6.62,21.11-3.6A45.54,45.54,0,0,1,174,78.43ZM200,73c-5.61,0-10.32,3.18-11.55,7.28-.09.32,0,.52.4.36a8.17,8.17,0,0,1,3.41-.67,7,7,0,0,1,5.5,2.3,9.85,9.85,0,0,1,0,5.7c-.94-.21-1.28-.94-2.2-.94s-1.64.65-3.2.65-1.74-.74-2.77-.74c-1.21,0-1.43,1.24-1.43,2.65,0,6.25,5.75,14.86,11.87,14.86s11.86-8.61,11.86-14.86c0-1.41-.29-2.61-1.55-2.77a3.84,3.84,0,0,1-2.65.86c-1.56,0-2-.65-2.91-.65-1.11,0-1,2.34-2.32,2.47a11.08,11.08,0,0,1-.19-7.23,7,7,0,0,1,5.5-2.3,8.3,8.3,0,0,1,3.41.67c.36.16.49,0,.39-.36C210.31,76.13,205.61,73,200,73Zm8.94,9A5.28,5.28,0,0,0,205,83.45a1.55,1.55,0,0,0,0,1c2.44-.83,4.6-.87,5.64.3a1.9,1.9,0,0,0,.73-1.49C211.43,82.49,210.6,81.93,208.94,81.93ZM189.3,84.79c1.18-1.18,3.66-1.13,6.24-.18.11-1.28-2.18-2.68-4.48-2.68-1.67,0-2.49.56-2.49,1.37A1.89,1.89,0,0,0,189.3,84.79ZM228,63.61A20,20,0,0,0,216.6,68a44.6,44.6,0,0,1,5.13-10.21c-5.65.6-10.37,2.66-13.81,6.19l-2.69-7.07,6-5.28-8-.57L200,43.6l-3.2,7.45-8,.57,6,5.28L192.08,64c-3.45-3.53-8.16-5.59-13.8-6.19A45,45,0,0,1,183.4,68,20,20,0,0,0,172,63.61a53.7,53.7,0,0,1,6.76,11,.73.73,0,0,0,1.08.35,45.46,45.46,0,0,1,40.3,0,.73.73,0,0,0,1.08-.35A53.7,53.7,0,0,1,228,63.61Zm9.68,26.72c8.7-3,14.41,5.62,21.11,3.61C252.28,87,247,79.17,247.69,70.12a.55.55,0,0,0-.89-.52A15.77,15.77,0,0,0,240.45,80,15.74,15.74,0,0,0,226,78.43,45.54,45.54,0,0,1,237.67,90.33Z"/><rect class="cls-2" x="93.21" y="133.74" width="3.6" height="0.26"/></svg>