<svg id="图层_1" data-name="图层 1" xmlns="http://www.w3.org/2000/svg" viewBox="0 0 400 200"><title>zara_logo</title><path id="path6653" d="M109.1,123.84c0,4.71-3.94,8.54-6.91,8.54H68.65L110.84,65H54.43V76.16h2.9c0-4.71,3.05-8.54,6-8.54h29L49.9,135h61.19V123.84h-2"/><path d="M182.29,129.55,149.65,65l-29.91,64.6c-.52,1.42-3.4,3.21-7.49,3.21V135h15.92v-2.19c-3,0-6.12-1.47-5.36-3.22L130,114h27.59l7.85,15.56c.89,1.57-3.09,3.26-7.18,3.26V135H191.4v-2.19C186.39,132.81,183.33,131.24,182.29,129.55ZM131.2,111.47l11.94-26.2,13.32,26.2Z"/><path id="path6657" d="M195.21,67.71c4.85,0,8.86,1.25,8.86,2.76,0,12,0,59,0,59,0,1.61-4,3.4-8.81,3.4V135h32.44v-2c-4.82,0-8.72-1.93-8.72-3.53V67.11h9.35a16.36,16.36,0,0,1,16.31,16c0,8.5-7.31,15.38-16.32,15.38h-6.47s21.93,33.2,22,33.2a11.16,11.16,0,0,1,1.29,3.34h23.64v-2c-4.54,0-6.93-1.89-8.24-3.54L239.37,102c10.13-.67,18-8.87,18-18.59,0-10.16-8.72-18.36-19.5-18.36H195.21v2.71"/><path d="M341,129.55,308.34,65l-29.91,64.6c-.52,1.42-3.4,3.29-7.49,3.29V135h15.92v-2c-3,0-6.12-1.69-5.36-3.44l7.19-15.6h27.6l7.84,15.56c.89,1.57-3.08,3.34-7.18,3.34V135h33.14v-2C345.08,133,342,131.24,341,129.55Zm-51.09-18.08,11.94-26.2,13.33,26.2Z"/></svg>