<?xml version="1.0" encoding="utf-8"?>
<!-- Generator: Adobe Illustrator 23.0.0, SVG Export Plug-In . SVG Version: 6.00 Build 0)  -->
<svg version="1.1" id="图层_1" xmlns="http://www.w3.org/2000/svg" xmlns:xlink="http://www.w3.org/1999/xlink" x="0px" y="0px"
	 viewBox="0 0 330 44" style="enable-background:new 0 0 330 44;" xml:space="preserve">
<style type="text/css">
	.st0{fill:none;}
	.st1{fill:#FFFFFF;}
	.st2{fill:#FFFFFF;stroke:#FFFFFF;stroke-width:0.5;stroke-miterlimit:10;}
</style>
<title>画板 1secxa</title>
<polygon class="st0" points="-119.5,-111 369.6,-111 369.6,132 -119.5,132 "/>
<path class="st1" d="M219.5,8.9c0.8,0,1.6-0.4,2-1.1l1.4-2c0.2-0.3,0.2-0.8-0.1-1c-0.1-0.1-0.3-0.2-0.5-0.2h-9.7
	c-1.8-0.1-3.5,0.5-4.9,1.6c-1.3,1.2-2,2.9-2.1,4.6l-0.4,5.3c-0.3,1.7,0.2,3.4,1.3,4.7c1.2,1.2,2.9,1.8,4.6,1.6h2.2
	c0.4,0,0.7-0.3,0.7-0.8l0.2-2.6c0-0.4-0.3-0.8-0.7-0.9c0,0-0.1,0-0.1,0h-1.2c-0.6,0.1-1.2-0.1-1.7-0.5c-0.4-0.5-0.5-1.2-0.4-1.8
	l0.4-4.8c0-0.7,0.2-1.3,0.7-1.8c0.5-0.4,1.1-0.6,1.8-0.5L219.5,8.9z"/>
<path class="st1" d="M237.6,29.6h-12.7c-0.4,0.1-0.7-0.2-0.8-0.5c0-0.1,0-0.2,0-0.3l2.1-23.4c0-0.4,0.3-0.8,0.8-0.8c0,0,0.1,0,0.1,0
	h12.7c0.5,0,0.8,0.3,0.7,0.8l-0.2,2.6c0,0.4-0.3,0.8-0.7,0.8c0,0-0.1,0-0.1,0h-8.1c-0.2,0-0.5,0.1-0.5,0.4c0,0,0,0,0,0.1l-0.4,5.1
	c0,0.3,0.1,0.4,0.4,0.4h6.6c0.5,0,0.8,0.3,0.8,0.8l-0.2,2.6c0,0.4-0.3,0.8-0.8,0.8c0,0-0.1,0-0.1,0h-6.6c-0.2,0-0.5,0.1-0.5,0.4
	c0,0,0,0,0,0.1l-0.5,5.4c0,0.3,0.1,0.4,0.4,0.4h8.1c0.5,0,0.8,0.3,0.7,0.8l-0.2,2.6C238.5,29.2,238.2,29.6,237.6,29.6
	C237.7,29.6,237.7,29.6,237.6,29.6 M251.3,29.6h-4.2c-1.7,0.1-3.4-0.5-4.6-1.6c-1.1-1.3-1.5-3-1.3-4.7l1.1-12.3
	c0.1-1.8,0.8-3.5,2.1-4.7c1.4-1.1,3.1-1.7,4.9-1.6h4.2c1.7-0.1,3.4,0.5,4.6,1.7c1.1,1.3,1.6,3,1.3,4.7l-0.1,1.8
	c0,0.5-0.4,0.9-0.8,0.9c0,0-0.1,0-0.1,0h-3.3c-0.6,0-0.8-0.3-0.7-0.9l0.1-1.6c0.1-0.6,0-1.3-0.4-1.8c-0.5-0.4-1.1-0.6-1.7-0.5h-2.6
	c-0.6,0-1.3,0.1-1.8,0.5c-0.4,0.5-0.7,1.1-0.7,1.8l-1,11.9c-0.1,0.6,0,1.3,0.4,1.8c0.5,0.4,1.1,0.6,1.7,0.5h2.6
	c0.6,0.1,1.3-0.1,1.8-0.5c0.4-0.5,0.7-1.1,0.7-1.8l0.1-1.6c0-0.5,0.3-0.8,0.8-0.9c0,0,0.1,0,0.1,0h3.3c0.6,0,0.8,0.3,0.8,0.9
	l-0.2,1.8c-0.1,1.8-0.8,3.5-2.1,4.7C254.9,29.1,253.2,29.7,251.3,29.6 M269.4,29.6h-3.3c-0.6,0-0.8-0.3-0.8-0.8l1.7-19.5
	c0-0.3-0.1-0.4-0.4-0.4h-4.4c-0.5,0-0.8-0.3-0.8-0.8l0.2-2.7c0-0.4,0.3-0.8,0.8-0.8c0,0,0.1,0,0.1,0h14.7c0.4-0.1,0.7,0.2,0.8,0.5
	c0,0.1,0,0.2,0,0.3L277.8,8c0,0.4-0.3,0.8-0.8,0.8c0,0-0.1,0-0.1,0h-4.4c-0.3,0-0.5,0.1-0.5,0.4l-1.7,19.5
	C270.3,29.2,270,29.5,269.4,29.6C269.5,29.5,269.5,29.5,269.4,29.6 M285.5,5.3l-2,23.4c0,0.4-0.3,0.8-0.8,0.8c0,0-0.1,0-0.1,0h-3.3
	c-0.4,0.1-0.7-0.2-0.8-0.5c0-0.1,0-0.2,0-0.3l2-23.4c0-0.4,0.3-0.8,0.8-0.8c0,0,0.1,0,0.1,0h3.3C285.3,4.5,285.5,4.8,285.5,5.3
	 M314,25.3h2.8c0.6,0.1,1.3-0.1,1.8-0.5c0.4-0.5,0.7-1.1,0.7-1.8l1-11.9c0.1-0.6,0-1.3-0.4-1.8c-0.5-0.4-1.1-0.6-1.7-0.5h-2.8
	c-0.6-0.1-1.3,0.1-1.8,0.5c-0.4,0.5-0.7,1.1-0.7,1.8L312,23c-0.1,0.6,0,1.3,0.4,1.8C312.8,25.2,313.4,25.4,314,25.3 M317.3,29.6
	h-4.4c-1.7,0.2-3.4-0.4-4.6-1.6c-1.1-1.3-1.5-3-1.3-4.7l1.1-12.3c0.1-1.8,0.8-3.5,2.1-4.7c1.4-1.1,3.1-1.7,4.9-1.6h4.4
	c1.7-0.1,3.3,0.4,4.6,1.6c1.1,1.3,1.5,3,1.3,4.7l-1.1,12.3c-0.1,1.8-0.8,3.5-2.1,4.7C320.7,29.1,319,29.7,317.3,29.6 M300.7,12.9
	h3.3c0.4,0.1,0.8-0.3,0.9-0.7c0,0,0-0.1,0-0.1l0.1-1.2c0.3-1.7-0.2-3.4-1.3-4.7c-1.2-1.2-2.9-1.8-4.6-1.7h-4.1
	c-1.8-0.1-3.5,0.5-4.9,1.6c-1.3,1.2-2,2.9-2.1,4.7L287,23.2c-0.3,1.7,0.2,3.4,1.3,4.7c1.2,1.2,2.9,1.8,4.6,1.6h4.1
	c1.8,0.1,3.5-0.5,4.8-1.6c1.3-1.2,2-2.9,2.1-4.7l0.6-6.5c0.1-0.4-0.1-0.8-0.5-0.9c-0.1,0-0.2,0-0.3,0H296c-0.5,0-0.9,0.4-0.9,0.9
	c0,0.1,0,0.2,0.1,0.3l1,2c0.3,0.7,1,1.1,1.8,1.1h0.8c0.3,0,0.4,0.1,0.4,0.4L299,23c0,0.7-0.2,1.3-0.7,1.8c-0.5,0.4-1.1,0.6-1.8,0.5
	H294c-0.6,0.1-1.2-0.1-1.7-0.5c-0.3-0.5-0.4-1.2-0.3-1.8l1-11.9c0-0.7,0.2-1.3,0.7-1.8c0.5-0.4,1.1-0.6,1.8-0.5h2.5
	c0.6-0.1,1.2,0.1,1.7,0.5c0.4,0.5,0.5,1.2,0.3,1.8l-0.1,0.9C300,12.7,300.2,12.9,300.7,12.9"/>
<path class="st1" d="M214,11.7c-0.4,0-0.7,0.3-0.7,0.8l-0.2,2.6c0,0.4,0.3,0.8,0.7,0.8c0,0,0.1,0,0.1,0h1.2c0.6-0.1,1.2,0.1,1.7,0.5
	c0.4,0.5,0.5,1.2,0.4,1.8l-0.4,4.7c0,0.7-0.2,1.3-0.7,1.8c-0.5,0.4-1.1,0.6-1.8,0.5h-6.7c-0.8,0-1.6,0.4-2,1.1l-1.4,2
	c-0.2,0.3-0.2,0.8,0.1,1c0.1,0.1,0.3,0.2,0.5,0.2h9.9c1.8,0.1,3.5-0.4,4.9-1.5c1.3-1.2,2-2.9,2.1-4.6l0.5-5.3
	c0.3-1.7-0.2-3.4-1.3-4.6c-1.2-1.2-2.9-1.8-4.6-1.6L214,11.7L214,11.7z"/>
<line class="st2" x1="194.8" y1="4.5" x2="194.8" y2="40.5"/>
<path class="st1" d="M209.3,36.4h-0.5v-1h-4.8v0.9h-0.5v-1.4h2.7c-0.1-0.2-0.2-0.4-0.4-0.6l0.6-0.1c0.1,0.2,0.2,0.5,0.4,0.7h2.6
	L209.3,36.4z M208.3,37.9h-3.4v0.7h3.7v2.1h-0.5v-0.3h-3.2v0.3h-0.5v-4.6h3.9L208.3,37.9z M207.8,37.4v-0.9h-2.9v0.9H207.8z
	 M208.1,40v-1h-3.2v1L208.1,40z"/>
<path class="st1" d="M220.8,35.3c-0.1-0.3-0.3-0.6-0.5-0.9l0.5-0.2c0.2,0.3,0.4,0.7,0.5,1.1h2.6v0.5h-3.7l-0.1,1.2l0,0h2.9
	c0,0.9,0,1.8-0.2,2.7c0,0.5-0.5,0.9-1,0.9h-0.8l-0.1-0.5h0.9c0.4,0,0.6-0.3,0.7-0.8c0-0.3,0.1-0.9,0.1-1.9h-2.4
	c-0.1,0.5-0.3,1.1-0.5,1.5c-0.4,0.6-0.9,1.2-1.4,1.6l-0.4-0.3c0.6-0.5,1.1-1.1,1.5-1.8c0.2-0.6,0.4-1.2,0.4-1.8c0-0.4,0-0.8,0.1-1
	h-2v-0.5L220.8,35.3z"/>
<path class="st1" d="M232.3,38.9v-0.5h2.8V38h0.5v0.5h2.8v0.5h-2.3c0.7,0.6,1.5,1,2.4,1.2l-0.2,0.5c-1-0.3-1.9-0.9-2.6-1.7h-0.1v1.8
	h-0.5v-1.8H235c-0.7,0.8-1.5,1.4-2.6,1.7l-0.3-0.5c0.9-0.2,1.7-0.6,2.4-1.3H232.3z M233.6,35.9l-0.3,0.4c-0.3-0.2-0.7-0.4-1.1-0.6
	l0.3-0.4C232.9,35.5,233.3,35.7,233.6,35.9z M234.2,36.6c-0.5,0.5-1,1-1.6,1.5l-0.4-0.4c0.6-0.4,1.1-0.8,1.5-1.4L234.2,36.6z
	 M234.1,35l-0.3,0.4c-0.4-0.3-0.8-0.5-1.2-0.7l0.3-0.4C233.3,34.5,233.7,34.7,234.1,35L234.1,35z M235.1,36.8v0.5h3.2v0.4h-3.7v-3.2
	h3.6V35h-3.1v0.5h2.8v1.3L235.1,36.8z M235.1,36.4h2.3v-0.5h-2.3V36.4z"/>
<path class="st1" d="M250.1,40.6c-0.4,0-0.7,0-1.1-0.1c-0.3-0.1-0.5-0.3-0.7-0.5c-0.1-0.1-0.2-0.2-0.3-0.2c-0.2,0-0.4,0.3-0.9,1
	l-0.4-0.3c0.2-0.4,0.6-0.8,1-1.1v-2.2h-1v-0.5h1.5v2.6c0.1,0,0.1,0.1,0.2,0.2c0.1,0.2,0.3,0.3,0.5,0.4c0.3,0.1,0.7,0.2,1,0.2h2.4
	h0.8l-0.1,0.5L250.1,40.6L250.1,40.6z M248.4,35.5l-0.4,0.3c-0.4-0.4-0.8-0.8-1.2-1.1l0.3-0.3C247.7,34.7,248.1,35.1,248.4,35.5z
	 M249.8,35.1c-0.1-0.2-0.2-0.4-0.4-0.6l0.5-0.2c0.2,0.2,0.3,0.5,0.4,0.8h0.8c0.2-0.3,0.3-0.5,0.4-0.8l0.5,0.2
	c-0.1,0.2-0.2,0.4-0.4,0.6h1.2v0.5h-2c0,0.2-0.1,0.4-0.2,0.6h1.7v3.4h-3.3v-3.4h1.1c0.1-0.2,0.1-0.4,0.2-0.6h-1.8v-0.5H249.8z
	 M252,37.1v-0.5h-2.4v0.5H252z M252,38v-0.5h-2.4V38H252z M252,38.4h-2.4V39h2.4L252,38.4z"/>
<path class="st1" d="M261.4,40.6l-0.1-0.5c0.2,0,0.4,0,0.5,0c0.1,0,0.2,0,0.2-0.1c0,0,0,0,0,0v-1.8c-0.2,0.1-0.5,0.2-0.7,0.3
	l-0.1-0.5c0.3-0.1,0.6-0.2,0.8-0.3v-1.7h-0.8v-0.5h0.8v-1.3h0.5v1.3h0.6v0.5h-0.6v1.5l0.6-0.3v0.5c-0.2,0.1-0.4,0.2-0.6,0.3v2.1
	c0,0.3-0.2,0.5-0.4,0.5c0,0-0.1,0-0.1,0H261.4z M267.4,37.8H267v0.3c-0.3,0.6-0.7,1.1-1.2,1.5c0.6,0.3,1.1,0.6,1.8,0.7l-0.3,0.5
	c-0.7-0.2-1.3-0.5-1.9-0.9c-0.7,0.4-1.4,0.7-2.1,0.8l-0.3-0.5c0.7-0.1,1.3-0.4,2-0.7c-0.4-0.4-0.8-0.9-1-1.4h-0.3v-0.3h-0.3v-1.3
	h2.6c0.3-0.4,0.5-0.9,0.7-1.3l0.5,0.2c-0.2,0.4-0.4,0.8-0.6,1.2h0.8L267.4,37.8z M267.4,34.8c-1.3,0.2-2.6,0.3-4,0.3l-0.1-0.5
	c1.3,0,2.6-0.1,3.9-0.3L267.4,34.8z M264.5,36.1l-0.4,0.2c-0.1-0.3-0.3-0.6-0.5-0.9l0.4-0.1C264.2,35.5,264.3,35.8,264.5,36.1
	L264.5,36.1z M266.9,37.6v-0.7h-3.1v0.7H266.9z M265.4,39.3c0.4-0.3,0.8-0.7,1.1-1.2h-2C264.7,38.6,265,38.9,265.4,39.3L265.4,39.3z
	 M265.7,36.1l-0.4,0.2c-0.1-0.3-0.3-0.7-0.5-1l0.4-0.1C265.4,35.5,265.6,35.8,265.7,36.1L265.7,36.1z"/>
<path class="st1" d="M277.4,40.7h-0.5v-3.6c-0.2,0.7-0.6,1.4-1,2l-0.2-0.6c0.6-0.7,1-1.5,1.2-2.3h-1.1v-0.5h1.1v-1.4h0.5v1.4h0.9
	v0.5h-0.9v0.4c0.4,0.3,0.7,0.7,1.1,1.1l-0.3,0.4c-0.3-0.4-0.6-0.8-0.8-1L277.4,40.7z M278.7,35.2h-0.3v-0.5h3.1v0.5
	c-0.2,1.2-0.6,2.3-1.2,3.4c0.5,0.7,1,1.2,1.7,1.7l-0.4,0.4c-0.6-0.5-1.2-1.1-1.6-1.7c-0.5,0.7-1.1,1.2-1.8,1.7l-0.3-0.4
	c0.7-0.5,1.3-1,1.8-1.7C279.2,37.5,278.8,36.4,278.7,35.2z M279.2,35.2c0.1,1,0.4,2,0.9,2.9c0.5-0.9,0.9-1.9,1-2.9H279.2z"/>
<path class="st1" d="M290.2,37.7l-0.2-0.5c0.8-0.8,1.3-1.8,1.7-2.9l0.5,0.2c-0.2,0.5-0.4,1-0.7,1.5v4.7H291v-3.9
	C290.8,37.1,290.5,37.4,290.2,37.7z M296.3,36.5l-2.3,0.3c0,0.4,0.1,0.8,0.2,1.2c0.1,0.6,0.4,1.2,0.7,1.7c0.3,0.4,0.5,0.6,0.8,0.6
	s0.3-0.5,0.4-1.3l0.4,0.3c-0.1,0.4-0.2,0.9-0.4,1.3c-0.1,0.2-0.3,0.3-0.5,0.3c-0.4-0.1-0.8-0.3-1.1-0.7c-0.4-0.6-0.7-1.2-0.9-1.9
	c-0.1-0.4-0.2-0.9-0.2-1.3L292,37l-0.1-0.5l1.5-0.2c0-0.6-0.1-1.3-0.1-2h0.5c0,0.8,0,1.4,0.1,2l2.3-0.3L296.3,36.5z M295.7,35.4
	l-0.4,0.3c-0.3-0.4-0.7-0.8-1.1-1.1l0.3-0.3C295,34.7,295.4,35,295.7,35.4z"/>
<path class="st1" d="M305.5,36.9v-1.7h-0.9v-0.5h2.2v0.5h-0.9v1.7h0.8v0.5h-0.8V39c0.3-0.1,0.5-0.2,0.8-0.3v0.5
	c-0.7,0.3-1.4,0.5-2.1,0.7l-0.1-0.5c0.3-0.1,0.6-0.1,0.9-0.2v-1.8h-0.8v-0.5H305.5z M310.7,34.6v3.2h-1.5v0.8h1.6v0.5h-1.6V40h1.8
	v0.5h-4.2V40h1.9v-0.9h-1.6v-0.5h1.6v-0.8h-1.5v-3.2H310.7z M308.7,36v-1h-1v1L308.7,36z M308.7,36.4h-1v1h1V36.4z M309.2,36h1v-1
	h-1V36z M310.2,36.4h-1v1h1V36.4z"/>
<path class="st1" d="M322.6,34.9h2.8v0.5h-1.5c-0.1,0.3-0.3,0.6-0.4,0.8h1.6V40c0,0.5-0.2,0.7-0.6,0.7h-0.7l-0.1-0.5h0.7
	c0.2,0,0.3-0.1,0.3-0.4v-3.2h-4.5v4h-0.5v-4.5h1.5c-0.1-0.3-0.2-0.6-0.4-0.8h-1.5v-0.5h2.9c-0.1-0.2-0.2-0.4-0.3-0.5l0.5-0.1
	C322.5,34.4,322.6,34.7,322.6,34.9z M322,37.1c-0.4,0.5-0.9,0.9-1.5,1.3l-0.3-0.4c0.5-0.3,1-0.7,1.5-1.2L322,37.1z M323.7,38.1v1.7
	H321v-1.7L323.7,38.1z M323,36.2c0.1-0.3,0.3-0.6,0.4-0.8h-2.1c0.1,0.3,0.2,0.6,0.3,0.8H323z M323.2,38.6h-1.6v0.8h1.6V38.6z
	 M324.5,38l-0.4,0.4c-0.4-0.5-0.9-0.9-1.4-1.3l0.3-0.3C323.6,37.1,324,37.6,324.5,38L324.5,38z"/>
<g>
	<g id="图层_1-2">
		<path id="_179287472_1_" class="st1" d="M51.1,5.5h-8.8V9h2.3v6.8h-1.9v3.5h1.9v7.4h-2.1v3.4h8.6v-3.4h-2.3v-7.4h1.9v-3.5h-1.9V9
			h2.3L51.1,5.5z M65.3,11.3h-3.5L62.7,24c0.3,1.3,1.4,2.2,2.7,2.2H67v-3.5h-0.2c-0.5,0-0.8-0.2-0.9-0.5L65.3,11.3L65.3,11.3z
			 M66.7,5.5H51.9V9h1.9l-2.1,13c-0.1,0.5-0.3,0.7-0.7,0.7h-0.7l0.6,3.5h2c1.4,0.1,2.6-0.8,2.7-2.2l0,0l1.5-9.1V30h4.1V12.4h-3.8
			L58.1,9h8.6V5.5z M98,18.3H79.2v11.6h20.6c1.7,0,2.4-0.8,2.5-2.5v-9L98,18.3L98,18.3z M98,25.5v0.7c0,0.3-0.2,0.6-0.5,0.7H83.4
			v-1.3H98L98,25.5z M83.4,22.7v-1.3h14.6v1.3H83.4z M91.7,6.1h-8.8l0.4-0.9h-3.5l-0.5,1.7c-0.1,0.4-0.3,0.7-0.7,0.7h-0.5l0.6,2h1.2
			c0.7,0,1.5-0.2,2-0.7h2.2v1.4h-5.2V13h3.7l-0.5,0.8c-0.3,0.5-0.8,0.9-1.3,0.9h-2.2l0.5,2.6H83c0.7-0.1,1.4-0.5,1.9-1.1l1.2-1.8
			l0.8,1.3c0.9,1,2.1,1.6,3.4,1.5H92v-2.2h-1c-0.4,0-0.7-0.2-0.9-0.5l-0.5-0.8h-3.1l0.5-0.8H92v-2.9h-3.8V8.7h3.4L91.7,6.1z
			 M102.5,14.8V5.7H93v11.7h7c1.2,0.2,2.4-0.6,2.6-1.8C102.6,15.3,102.6,15,102.5,14.8z M96.9,9h1.9v4.4c0,0.3-0.2,0.6-0.5,0.7h-1.3
			V9L96.9,9z M138.9,24.8V7.1h-9.8V5.1h-4.3v2.1H115v20.2h9.9V30h4.3v-2.6h7.3c1.2,0.2,2.3-0.7,2.5-1.9
			C138.9,25.2,138.9,25,138.9,24.8z M124.9,23.9h-5.6V10.6h5.6V23.9z M129.1,10.6h5.5v12.7c0,0.3-0.2,0.6-0.5,0.7h-5L129.1,10.6z
			 M155.1,5.2h-4l0.9,3.6c0.2,1.3,1.3,2.3,2.6,2.3h3.1V7.6h-1c-0.5,0-0.8-0.2-0.9-0.6L155.1,5.2L155.1,5.2z M158.6,7.4V26
			c0,0.3-0.1,0.6-0.4,0.7h-0.3c-0.3-0.1-0.5-0.3-0.5-0.7V12.7h-6.3v3.4h2v11.4c0,1.6,0.8,2.5,2.5,2.5h4.8c1.2,0.2,2.3-0.6,2.4-1.8
			c0-0.1,0-0.2,0-0.3l0.3,2h1.9c1.2,0.1,2.4-0.7,2.5-2c0-0.2,0-0.3,0-0.5V12.4h-4.7v-1.7h5.3l1.1,16.9c0,1.2,1,2.3,2.3,2.3
			c0,0,0,0,0,0h4.2v-3.4h-2.2c-0.4,0-0.6-0.2-0.6-0.7l-0.2-2.6h0.6c1,0,1.5-0.7,1.6-2.2l0.6-8.6h-2.2l-0.4,6.8
			c0,0.3-0.2,0.5-0.4,0.5h-0.1l-0.6-9.1h3.8V7.3H175l-0.2-1.9h-2.4l0.2,1.9h-1.1l-0.1-2.3h-3.9l0.1,2.3h-7.2L158.6,7.4L158.6,7.4z
			 M162.7,15.9h1.3V26c0,0.3-0.2,0.6-0.5,0.7h-0.7L162.7,15.9z"/>
		<path class="st1" d="M17.7,2.5C13,6.4,7,8.4,0.9,8.2V23c0,7.1,8.9,19.5,16.8,19.5S34.5,30.1,34.5,23V8.2
			C28.4,8.4,22.4,6.4,17.7,2.5z M32.1,22.9c0,6-7.6,16.7-14.4,16.7S3.4,28.9,3.4,22.9V10.2c6.7,0,10.7-2,14.4-4.9
			c3.6,2.9,7.6,4.9,14.4,4.9L32.1,22.9z"/>
		<path class="st1" d="M17.8,17.4c-1.1,0-2,0.9-2,2v2h3.9v-2l0,0C19.7,18.3,18.8,17.4,17.8,17.4L17.8,17.4z"/>
		<path class="st1" d="M17.8,8.2c-3.4,2.8-7.6,4.3-12,4.1v10.5c0,5,6.3,13.8,12,13.8s12-8.9,12-13.9V12.3
			C25.4,12.5,21.2,11,17.8,8.2z M22.7,28c0,0.4-0.4,0.8-0.8,0.8h0h-8.2c-0.4,0-0.8-0.4-0.8-0.8l0,0l0,0v-5.8c0-0.4,0.4-0.8,0.8-0.8
			h1v-2.2l0,0c0-1.8,1.4-3.2,3.2-3.2s3.2,1.4,3.2,3.2l0,0v2.2h0.8c0.4,0,0.8,0.4,0.8,0.8L22.7,28z"/>
		<path class="st1" d="M45.6,38.1c0,0.5-0.1,1.1-0.4,1.5c-0.3,0.3-0.6,0.4-1,0.4c-0.4,0-0.8-0.2-1.1-0.5c-0.4-0.5-0.5-1.1-0.5-1.7
			c0-0.7,0.1-1.3,0.5-1.9c0.3-0.4,0.7-0.6,1.2-0.6c0.4,0,0.8,0.2,1,0.5c0.3,0.4,0.4,0.8,0.4,1.3h-0.6c0-0.3-0.1-0.6-0.2-0.9
			c-0.1-0.2-0.3-0.3-0.6-0.3c-0.3,0-0.6,0.2-0.7,0.5c-0.2,0.5-0.3,1-0.3,1.5c0,0.5,0.1,1,0.3,1.4c0.1,0.2,0.4,0.4,0.7,0.4
			c0.2,0,0.4-0.1,0.5-0.3c0.2-0.3,0.3-0.7,0.3-1.1L45.6,38.1z"/>
		<path class="st1" d="M52.6,37.6c0.1,0.6-0.1,1.3-0.4,1.8c-0.2,0.4-0.7,0.6-1.1,0.6c-0.4,0-0.9-0.2-1.1-0.5
			c-0.3-0.6-0.5-1.2-0.4-1.8c-0.1-0.6,0.1-1.3,0.4-1.8c0.3-0.4,0.7-0.6,1.1-0.5c0.4,0,0.9,0.2,1.1,0.5C52.5,36.4,52.6,37,52.6,37.6z
			 M51.9,37.6c0-0.5,0-1-0.2-1.5c-0.1-0.2-0.4-0.3-0.6-0.3c-0.3,0-0.5,0.1-0.6,0.3c-0.2,0.5-0.3,1-0.3,1.5c0,0.5,0,1,0.3,1.5
			c0.1,0.2,0.4,0.4,0.6,0.4c0.2,0,0.5-0.1,0.6-0.4C51.9,38.7,51.9,38.2,51.9,37.6L51.9,37.6z"/>
		<path class="st1" d="M59.6,40H59v-3.3H59L58.3,40h-0.4l-0.7-3.3h0V40h-0.5v-4.7h0.8l0.6,3.1h0l0.6-3.1h0.8V40z"/>
		<path class="st1" d="M66.6,37.6c0.1,0.6-0.1,1.3-0.4,1.9c-0.5,0.6-1.3,0.7-1.9,0.3c-0.1-0.1-0.2-0.2-0.3-0.3
			c-0.3-0.6-0.5-1.2-0.4-1.8c-0.1-0.6,0.1-1.3,0.4-1.8c0.5-0.6,1.4-0.7,2-0.3c0.1,0.1,0.2,0.2,0.3,0.3C66.5,36.4,66.7,37,66.6,37.6z
			 M66,37.6c0-0.5,0-1-0.3-1.5c-0.1-0.2-0.4-0.3-0.6-0.3c-0.3,0-0.5,0.1-0.6,0.3c-0.2,0.5-0.3,1-0.3,1.5c0,0.5,0,1,0.3,1.5
			c0.1,0.2,0.4,0.4,0.6,0.4c0.2,0,0.5-0.1,0.6-0.4C65.9,38.7,66,38.2,66,37.6z"/>
		<path class="st1" d="M73.6,37.7c0.1,0.7-0.1,1.3-0.5,1.8c-0.4,0.4-0.9,0.6-1.4,0.5h-0.9v-4.7h0.9c0.6,0,1.1,0.2,1.5,0.5
			C73.5,36.4,73.7,37,73.6,37.7z M73,37.7c0-0.5-0.1-1-0.3-1.4c-0.2-0.3-0.6-0.4-1-0.4h-0.3v3.7h0.3c0.4,0,0.8-0.1,1-0.4
			C72.9,38.7,73,38.2,73,37.7z"/>
		<path class="st1" d="M80.7,37.6c0.1,0.6-0.1,1.3-0.4,1.8c-0.2,0.4-0.7,0.6-1.1,0.6c-0.4,0-0.9-0.2-1.1-0.5
			c-0.3-0.6-0.5-1.2-0.4-1.8c-0.1-0.6,0.1-1.3,0.4-1.8c0.3-0.4,0.7-0.6,1.1-0.5c0.4,0,0.9,0.2,1.1,0.5C80.6,36.4,80.8,37,80.7,37.6z
			 M80,37.6c0-0.5,0-1-0.2-1.5c-0.1-0.2-0.4-0.3-0.6-0.3c-0.2,0-0.5,0.1-0.6,0.3c-0.2,0.5-0.3,1-0.3,1.5c-0.1,0.5,0,1,0.3,1.5
			c0.1,0.2,0.4,0.3,0.6,0.4c0.3,0,0.5-0.1,0.6-0.4C80,38.7,80.1,38.2,80,37.6z"/>
		<path class="st1" d="M87.8,34.3c0.2,0.2,0.4,0.5,0.6,0.8l-0.5,0.3h3c0,0.3,0,0.5,0,0.6s0,0.3,0,0.5h-0.6v-0.7h-4.7v0.7h-0.6
			c0-0.2,0-0.3,0-0.5c0-0.2,0-0.4,0-0.6h2.7c-0.1-0.3-0.3-0.5-0.5-0.7L87.8,34.3z M89.9,37.3c0,0.2,0,0.5,0,0.7h-3.2v0.7h3.6v1
			c0,0.4,0,0.7,0,1.1h-0.6v-0.4h-3v0.4H86c0-0.4,0-1.2,0-2.2c0-1,0-1.8,0-2.2h3.9C89.9,36.8,89.9,37,89.9,37.3L89.9,37.3z
			 M89.3,37.6v-0.7h-2.7v0.7H89.3z M89.7,39.9v-0.8h-3v0.8H89.7z"/>
		<path class="st1" d="M95.5,35.8c0.3,0,0.6,0,1,0h4.1c0.4,0,0.8,0,1.1,0v0.5c-0.2,0-0.6,0-1,0h-2.8c0,0.2,0,0.6,0,1.1h3.1
			c0,0.2-0.1,0.6-0.1,1l-0.2,1.5c0,0.3-0.2,0.6-0.5,0.7c-0.4,0.1-0.8,0.2-1.2,0.2c0-0.2-0.1-0.4-0.2-0.6c0.3,0,0.7,0,1,0
			c0.2-0.1,0.4-0.2,0.4-0.5l0.2-1.8h-2.6c-0.1,0.4-0.2,0.9-0.3,1.3c-0.2,0.4-0.4,0.7-0.6,1c-0.3,0.3-0.5,0.5-0.8,0.8
			c-0.1-0.2-0.3-0.3-0.5-0.4c0.3-0.2,0.5-0.4,0.8-0.6c0.3-0.3,0.5-0.6,0.7-0.9c0.2-0.4,0.3-0.7,0.3-1.2c0.1-0.5,0.1-1,0.1-1.5h-0.8
			c-0.4,0-0.7,0-1,0L95.5,35.8z M97.9,34.7c0.2-0.1,0.3-0.2,0.5-0.3c0.2,0.3,0.4,0.6,0.6,1c-0.2,0.1-0.4,0.2-0.5,0.3
			C98.3,35.3,98.1,35,97.9,34.7z"/>
		<path class="st1" d="M108.8,40.8c0-0.4,0-1,0-1.9c-0.3,0.5-0.7,0.9-1.2,1.2c-0.5,0.3-0.9,0.5-1.4,0.7c-0.1-0.2-0.2-0.4-0.4-0.5
			c0.5-0.1,1-0.3,1.5-0.6c0.4-0.2,0.7-0.5,1-0.8h-1.4H106v-0.5c0.3,0,0.6,0,0.9,0h1.9c0-0.2,0-0.4,0-0.6h0.6c0,0.2,0,0.4,0,0.6h1.8
			c0.4,0,0.7,0,1,0v0.5c-0.3,0-0.7,0-1,0h-1.3c0.3,0.4,0.7,0.7,1.2,0.9c0.4,0.1,0.8,0.3,1.2,0.3c-0.2,0.1-0.3,0.3-0.3,0.5
			c-0.5-0.1-1-0.3-1.5-0.6c-0.5-0.3-0.9-0.7-1.2-1.2c0,0.9,0,1.6,0,2L108.8,40.8z M106.1,35.8c0.1-0.1,0.2-0.3,0.2-0.4
			c0.4,0.1,0.7,0.3,1.1,0.5c-0.1,0.1-0.2,0.3-0.3,0.4C106.8,36.1,106.5,35.9,106.1,35.8z M107.4,37.3c-0.2,0.2-0.5,0.5-0.8,0.8
			l-0.4-0.4c0.3-0.2,0.6-0.4,0.8-0.6c0.2-0.2,0.5-0.5,0.7-0.7c0.1,0.2,0.1,0.3,0.3,0.5C107.8,37,107.7,37.1,107.4,37.3z M106.7,34.7
			c0.1-0.2,0.2-0.3,0.3-0.4c0.4,0.2,0.7,0.4,1,0.7c-0.1,0.1-0.3,0.2-0.3,0.4C107.4,35.1,107.1,34.9,106.7,34.7z M111.9,34.7v0.4
			h-0.8h-2.2v0.5h2.6c0,0.2,0,0.5,0,0.7s0,0.4,0,0.6h-2.6v0.5h2.1h0.8v0.4H111h-2.6c0-0.3,0-0.8,0-1.5s0-1.2,0-1.6h2.7
			C111.3,34.7,111.6,34.7,111.9,34.7z M110.9,36.5V36h-2v0.5L110.9,36.5z"/>
		<path class="st1" d="M116.4,37h0.8h0.6c0,0.3,0,0.6,0,0.9v1.5c0.7,0.5,1.6,0.7,2.4,0.7c0.9,0,1.8,0,2.6-0.1
			c-0.1,0.2-0.2,0.4-0.2,0.7c-0.7,0-1.3,0-1.8,0s-1,0-1.3-0.1c-0.3,0-0.6-0.1-0.8-0.2c-0.2-0.1-0.5-0.2-0.7-0.4
			c-0.2-0.2-0.4-0.2-0.6,0c-0.2,0.2-0.4,0.4-0.5,0.6c-0.1-0.2-0.3-0.3-0.5-0.4c0.3-0.2,0.6-0.5,0.9-0.8v-2c-0.3,0-0.5,0-0.8,0
			L116.4,37z M116.9,34.9c0.2,0,0.4-0.1,0.6-0.2c0.1,0.4,0.3,0.8,0.3,1.2c-0.2,0-0.4,0.1-0.6,0.2C117.1,35.7,117,35.3,116.9,34.9
			L116.9,34.9z M118.3,35.4c0.3,0,1.1,0,2.5,0c0.1-0.3,0.3-0.7,0.4-1.1l0.6,0.2c-0.2,0.3-0.4,0.5-0.5,0.8h1.5v0.5c-0.3,0-1,0-2.1,0
			l-0.1,0.5h1.6c0,0.4,0,1,0,1.7s0,1.2,0,1.6h-3.4c0-0.4,0.1-0.9,0.1-1.6c0-0.6,0-1.2,0-1.7h1.2l0.1-0.5c-1,0-1.6,0-1.9,0
			L118.3,35.4z M120,35.1l-0.4,0.3c-0.2-0.3-0.3-0.5-0.5-0.7l0.4-0.3C119.6,34.7,119.9,34.9,120,35.1z M121.6,37.4v-0.5h-2.3v0.5
			H121.6z M121.6,38.3v-0.5h-2.3v0.5H121.6z M121.6,39.3v-0.6h-2.3v0.5L121.6,39.3z"/>
		<path class="st1" d="M127.8,35.2c0-0.2,0-0.5,0-0.7h0.6c0,0.2-0.1,0.5-0.1,0.7v0.8h0.7v0.5h-0.7v1.1l0.6-0.2c0,0.1,0,0.3,0,0.5
			c-0.2,0.1-0.4,0.2-0.6,0.3v2.2c0,0.2-0.1,0.3-0.2,0.4c-0.2,0.1-0.5,0.2-0.7,0.2c0-0.2-0.1-0.4-0.2-0.6c0.4,0,0.6,0,0.6-0.1v-1.8
			c-0.3,0.1-0.5,0.2-0.7,0.4c-0.1-0.2-0.1-0.4-0.2-0.6c0.3-0.1,0.7-0.2,1-0.3v-1.3c-0.3,0-0.6,0-0.9,0v-0.5h0.9L127.8,35.2z
			 M129.6,38.2v-0.5h0.7h2.1c-0.1,0.3-0.2,0.6-0.4,0.9c-0.2,0.4-0.4,0.7-0.7,1c0.3,0.2,0.5,0.3,0.8,0.3c0.3,0.1,0.7,0.2,1,0.2
			c-0.2,0.1-0.3,0.3-0.4,0.5c-0.3,0-0.7-0.1-1-0.3c-0.3-0.1-0.6-0.3-0.9-0.5c-0.5,0.4-1.1,0.7-1.7,0.8c-0.1-0.2-0.2-0.4-0.4-0.5
			c0.3,0,0.7-0.1,1-0.3c0.3-0.1,0.5-0.2,0.7-0.4c-0.3-0.4-0.6-0.9-0.8-1.5L129.6,38.2z M132.5,36.1c-0.1,0.2-0.2,0.5-0.3,0.6h1.1
			c0,0.2,0,0.3,0,0.5c0,0.2,0,0.3,0,0.5h-0.6v-0.5h-3v0.5h-0.5c0-0.2,0-0.3,0-0.5c0-0.2,0-0.3,0-0.5h2.5c0.2-0.4,0.3-0.9,0.4-1.4
			l0.7,0.2C132.7,35.7,132.6,35.9,132.5,36.1z M131.4,35.1c-0.7,0.1-1.4,0.1-2,0.2c0-0.2-0.1-0.4-0.2-0.5c0.7,0,1.3,0,2-0.1
			c0.5,0,1-0.1,1.5-0.3c0.1,0.2,0.2,0.4,0.3,0.6C132.6,35,132.1,35,131.4,35.1L131.4,35.1z M130.4,36.4c-0.2,0-0.3,0.1-0.4,0.2
			c-0.1-0.3-0.3-0.6-0.5-0.9c0.1-0.1,0.3-0.2,0.4-0.3C130,35.8,130.2,36.1,130.4,36.4L130.4,36.4z M131.2,39.3
			c0.3-0.3,0.5-0.7,0.6-1.1h-1.3C130.6,38.6,130.8,39,131.2,39.3L131.2,39.3z M131.4,36.3c-0.2,0-0.4,0.1-0.6,0.2
			c-0.1-0.3-0.2-0.7-0.4-1l0.4-0.2C131.1,35.6,131.2,35.9,131.4,36.3L131.4,36.3z"/>
		<path class="st1" d="M138.1,37.6c0.2-0.4,0.3-0.8,0.5-1.3c-0.3,0-0.6,0-0.9,0v-0.5c0.3,0,0.6,0,1,0c0-0.8,0-1.3,0-1.5h0.6
			c-0.1,0.5-0.1,1-0.1,1.5h0.9v0.5h-0.9v1c0.1-0.1,0.3-0.2,0.4-0.3c0.2,0.3,0.5,0.6,0.6,1c-0.2,0.1-0.3,0.2-0.5,0.3
			c-0.1-0.3-0.3-0.6-0.6-0.9v2c0,0.4,0,0.8,0,1.2h-0.6c0-0.4,0-0.8,0-1.2v-2c-0.2,0.6-0.5,1.1-0.8,1.6c-0.1-0.2-0.2-0.4-0.4-0.5
			C137.6,38.3,137.9,38,138.1,37.6z M140.1,35.1h1.1h2.1c-0.1,0.7-0.2,1.3-0.4,2c-0.2,0.7-0.5,1.3-0.9,1.8c0.2,0.3,0.5,0.5,0.8,0.7
			c0.3,0.2,0.7,0.4,1.1,0.5c-0.2,0.1-0.4,0.3-0.5,0.5c-0.4-0.2-0.7-0.4-1.1-0.7c-0.3-0.2-0.5-0.4-0.7-0.7c-0.2,0.3-0.5,0.5-0.7,0.7
			c-0.3,0.3-0.7,0.5-1.1,0.7c-0.1-0.2-0.3-0.4-0.4-0.5c0.3-0.1,0.6-0.3,0.9-0.4c0.4-0.2,0.7-0.5,1-0.9c-0.2-0.3-0.4-0.7-0.5-1
			c-0.2-0.7-0.3-1.5-0.4-2.3h-0.4L140.1,35.1z M141.3,37.5c0.1,0.3,0.2,0.7,0.4,1c0.2-0.4,0.5-0.8,0.6-1.2c0.2-0.5,0.3-1.1,0.4-1.7
			H141C141.1,36.2,141.2,36.9,141.3,37.5z"/>
		<path class="st1" d="M149.6,36.1v3.5c0,0.4,0,0.8,0,1.2H149c0-0.4,0-0.8,0-1.2v-2.5c-0.2,0.3-0.4,0.7-0.7,1
			c-0.1-0.2-0.3-0.3-0.4-0.4c0.4-0.4,0.7-0.8,0.9-1.3c0.3-0.6,0.5-1.3,0.7-1.9c0.2,0.1,0.4,0.2,0.6,0.2
			C149.9,35.2,149.7,35.6,149.6,36.1z M151.1,34.5l0.6,0.1c0,0.7,0,1.4,0.1,2.2c0.7-0.1,1.3-0.3,2-0.5l0.1,0.5
			c-0.2,0-0.9,0.2-2.1,0.4c0.1,0.9,0.5,1.7,1,2.4c0.4,0.4,0.7,0.6,0.7,0.4c0.1-0.2,0.1-0.4,0.1-0.7c0.2,0.1,0.4,0.2,0.6,0.3
			c-0.1,0.4-0.2,0.7-0.4,1c-0.1,0.2-0.3,0.2-0.7,0.1c-0.4-0.2-0.7-0.5-1-0.9c-0.5-0.7-0.8-1.6-0.9-2.4c-0.7,0.2-1.1,0.3-1.3,0.3
			l-0.2-0.5c0.3,0,0.8-0.1,1.4-0.3C151.2,35.7,151.2,34.9,151.1,34.5z M153.5,35.7c-0.2,0.1-0.3,0.2-0.5,0.3
			c-0.2-0.3-0.4-0.6-0.6-0.9c0.2-0.1,0.3-0.2,0.4-0.3C153.2,35.2,153.4,35.5,153.5,35.7z"/>
		<path class="st1" d="M160.1,35.2h0.7v0.5h-0.7h-0.3v1.5c0.3,0,0.5,0,0.8,0v0.5c-0.3,0-0.5,0-0.8,0v1.8c0.3-0.1,0.6-0.2,0.9-0.3
			c0,0.2,0.1,0.3,0.1,0.5c-0.4,0.1-0.7,0.3-1.2,0.4c-0.3,0.1-0.7,0.3-1,0.5c-0.1-0.2-0.2-0.4-0.3-0.6c0.3-0.1,0.6-0.2,0.9-0.3v-2
			c-0.3,0-0.6,0-0.8,0v-0.5c0.3,0,0.5,0,0.8,0v-1.4h-0.3h-0.6v-0.5h0.6L160.1,35.2z M164.6,36.4c0,0.8,0,1.3,0,1.7h-1.5v0.8h0.8
			c0.3,0,0.5,0,0.8,0v0.5c-0.2,0-0.5,0-0.8,0h-0.8v0.9h1h0.9v0.5c-0.2,0-0.5,0-0.8,0h-2.7c-0.3,0-0.5,0-0.8,0v-0.5h0.8h1.1v-0.9
			h-0.9c-0.2,0-0.4,0-0.6,0v-0.5c0.2,0,0.4,0,0.6,0h0.9v-0.8h-1.5c0-0.3,0-0.8,0-1.7s0-1.4,0-1.6h3.5
			C164.6,35.1,164.6,35.6,164.6,36.4L164.6,36.4z M162.6,36.2v-1h-0.9v1H162.6z M162.6,37.6v-1h-0.9v1H162.6z M164,36.2v-1h-1v1H164
			z M164,37.6v-1h-1v1H164z"/>
		<path class="st1" d="M172.6,35.2h1.6c0.4,0,0.7,0,1.1,0v0.5c-0.4,0-0.7,0-1.1,0h-3.1c0.3,0.4,0.5,0.6,0.6,0.7
			c-0.1,0.1-0.3,0.1-0.4,0.2h1.5c0.1-0.3,0.2-0.6,0.3-0.9c0.2,0.1,0.4,0.1,0.6,0.2c-0.2,0.2-0.3,0.5-0.4,0.7h1.5c0,0.2,0,0.5,0,0.9
			v2.7c0,0.2-0.1,0.4-0.3,0.5c-0.3,0.1-0.5,0.2-0.8,0.2c0-0.2-0.1-0.4-0.2-0.6c0.2,0,0.5,0,0.7,0c0.1-0.1,0.1-0.2,0.1-0.3v-3h-4v3.8
			h-0.5c0-0.5,0-0.8,0-1v-2.5c0-0.2,0-0.5,0-0.8h1.5c-0.2-0.3-0.4-0.5-0.6-0.7c0.1-0.1,0.3-0.2,0.4-0.3h-0.6c-0.4,0-0.8,0-1.1,0
			v-0.5c0.3,0,0.7,0,1.1,0h1.7c-0.1-0.2-0.2-0.4-0.4-0.6c0.2-0.1,0.4-0.1,0.5-0.2C172.4,34.6,172.5,34.9,172.6,35.2z M172.1,37.6
			c-0.3,0.2-0.6,0.4-0.8,0.7h2.1c0,0.2,0,0.5,0,0.8s0,0.5,0,0.8h-2.1c0-0.3,0-0.5,0-0.8s0-0.5,0-0.7c-0.1,0.1-0.3,0.2-0.4,0.3
			c-0.1-0.1-0.2-0.2-0.4-0.3c0.4-0.3,0.8-0.7,1.1-1.1L172.1,37.6z M172.9,39.5v-0.8h-1.1v0.8H172.9z M174.1,38.1
			c-0.2,0.1-0.3,0.2-0.4,0.4c-0.3-0.3-0.7-0.7-1.1-0.9c0.1-0.1,0.2-0.2,0.3-0.4C173.3,37.5,173.7,37.8,174.1,38.1L174.1,38.1z"/>
		<g>
			<path class="st1" d="M179.9,7.2c0-1.2,0.5-2.4,1.3-3.2c1.8-1.8,4.6-1.8,6.4,0c0.9,0.8,1.3,2,1.3,3.2c0,1.2-0.5,2.4-1.3,3.2
				c-1.8,1.8-4.6,1.8-6.4,0C180.3,9.6,179.9,8.4,179.9,7.2z M180.4,7.2c0,1.1,0.4,2.1,1.2,2.8c1.6,1.5,4.1,1.5,5.6,0
				c0.8-0.7,1.2-1.8,1.1-2.8c0-1.1-0.4-2.1-1.1-2.8c-1.6-1.5-4.1-1.5-5.6,0C180.8,5.1,180.4,6.1,180.4,7.2z M186.6,10h-1L185,8.6
				c-0.1-0.3-0.3-0.5-0.5-0.8c-0.1-0.2-0.3-0.2-0.5-0.3h-0.5V10h-0.9V4.3h1.6c0.6,0,1.1,0.1,1.6,0.4c0.4,0.3,0.6,0.7,0.6,1.2
				c0,0.4-0.1,0.7-0.4,1c-0.3,0.3-0.7,0.5-1.1,0.6c0.2,0.1,0.4,0.2,0.5,0.3c0.2,0.2,0.3,0.5,0.4,0.8L186.6,10z M183.5,5v1.9h0.8
				c0.3,0,0.6-0.1,0.9-0.2c0.2-0.2,0.3-0.4,0.3-0.7c0-0.3-0.1-0.6-0.3-0.7c-0.3-0.2-0.7-0.3-1-0.2H183.5z"/>
		</g>
	</g>
</g>
</svg>
